<svg width="52" height="48" viewBox="0 0 52 48" fill="none" xmlns="http://www.w3.org/2000/svg">
<path d="M45.8416 9.40486L43.1035 12.0844L45.2242 14.2713L47.9623 11.5917L45.8416 9.40486Z" fill="#83C000"/>
<path d="M32.9217 2.96649H28.0747V9.08109H32.9217V2.96649Z" fill="#83C000"/>
<path d="M13.3101 37.5092C16.9346 43.2692 23.3313 47.0919 30.6147 47.0919C41.9187 47.0919 51.0789 37.8897 51.0789 26.534C51.0789 15.1784 41.9187 5.9762 30.6147 5.9762C23.4518 5.9762 17.1498 9.66917 13.4995 15.2648L13.3101 37.5092Z" fill="white"/>
<path d="M13.3184 37.5006C16.9429 43.2606 23.3395 47.0833 30.623 47.0833C41.927 47.0833 51.0872 37.8811 51.0872 26.5254C51.0872 15.1698 41.927 5.96759 30.623 5.96759C23.4601 5.96759 17.1581 9.66056 13.5078 15.2562" stroke="#83C000" stroke-width="2.118" stroke-miterlimit="10" stroke-linecap="round"/>
<path d="M32.6548 27.7535C33.3435 26.5773 32.9561 25.0638 31.7939 24.3719C30.623 23.68 29.1164 24.0692 28.4276 25.2367C27.7389 26.413 28.1263 27.9265 29.2886 28.6184C30.4594 29.3189 31.966 28.9297 32.6548 27.7535Z" fill="#83C000"/>
<path d="M45.3882 9.15026L48.169 12.0216C48.5564 12.4194 49.1849 12.4281 49.5809 12.0389C49.9769 11.6497 49.9855 11.0184 49.5981 10.6205L46.8173 7.74918C46.4299 7.35134 45.8014 7.34269 45.4054 7.73188C45.018 8.12107 45.0094 8.75242 45.3882 9.15026Z" fill="#83C000"/>
<path d="M30.4595 26.6378L38.931 31.7232" stroke="#83C000" stroke-width="2.6965" stroke-miterlimit="10" stroke-linecap="round"/>
<path d="M33.7139 3.2H27.3603C26.4821 3.2 25.7676 2.48216 25.7676 1.6C25.7676 0.717838 26.4821 0 27.3603 0H33.7139C34.5921 0 35.3066 0.717838 35.3066 1.6C35.3066 2.48216 34.5921 3.2 33.7139 3.2Z" fill="#83C000"/>
<path d="M18.8286 38.374C21.8505 41.4097 26.0174 43.2778 30.6233 43.2778C39.8352 43.2778 47.2995 35.7794 47.2995 26.5254C47.2995 17.2713 39.8352 9.77295 30.6233 9.77295C26.9558 9.77295 23.5723 10.9578 20.8174 12.9729" stroke="#83C000" stroke-width="1.2056" stroke-miterlimit="10" stroke-linecap="round"/>
<path d="M4.84717 33.1849H13.4995" stroke="#83C000" stroke-width="2.118" stroke-miterlimit="10" stroke-linecap="round"/>
<path d="M0.912598 28.2551H19.4053" stroke="#83C000" stroke-width="2.118" stroke-miterlimit="10" stroke-linecap="round"/>
<path d="M6.81006 23.3254H23.3313" stroke="#83C000" stroke-width="2.118" stroke-miterlimit="10" stroke-linecap="round"/>
<path d="M2.87549 18.3957H17.4338" stroke="#83C000" stroke-width="2.118" stroke-miterlimit="10" stroke-linecap="round"/>
</svg>
