<svg width="68" height="37" viewBox="0 0 68 37" fill="none" xmlns="http://www.w3.org/2000/svg">
<path d="M61.7211 30.5769H65.5351C66.3401 30.5769 67 29.9242 67 29.1279V17.875C67 17.6401 66.9472 17.4181 66.8416 17.2093L61.985 7.86236C61.7343 7.37935 61.2328 7.0791 60.6785 7.0791H44.5645V30.5769" stroke="#83C000" stroke-width="2" stroke-miterlimit="10" stroke-linecap="round" stroke-linejoin="round"/>
<path d="M62.9615 18.8282L59.0286 10.9956H49.8433V18.8282H62.9615Z" stroke="#83C000" stroke-width="2" stroke-miterlimit="10" stroke-linecap="round" stroke-linejoin="round"/>
<path d="M30.0479 30.577H45.2644H49.8439" stroke="#83C000" stroke-width="2" stroke-miterlimit="10" stroke-linecap="round" stroke-linejoin="round"/>
<path d="M19.4894 30.577H14.2104V3.95917C14.2104 2.79733 15.1607 1.85742 16.3352 1.85742H42.4397C43.6142 1.85742 44.5644 2.79733 44.5644 3.95917V9.25923" stroke="#83C000" stroke-width="2" stroke-miterlimit="10" stroke-linecap="round" stroke-linejoin="round"/>
<path d="M31.3672 25.3552H44.5646" stroke="#83C000" stroke-width="2" stroke-miterlimit="10" stroke-linecap="round" stroke-linejoin="round"/>
<path d="M3.99512 10.5518H23.6988" stroke="#83C000" stroke-width="2" stroke-miterlimit="10" stroke-linecap="round" stroke-linejoin="round"/>
<path d="M1 14.6898H20.7037" stroke="#83C000" stroke-width="2" stroke-miterlimit="10" stroke-linecap="round" stroke-linejoin="round"/>
<path d="M4.81348 18.567H24.5172" stroke="#83C000" stroke-width="2" stroke-miterlimit="10" stroke-linecap="round" stroke-linejoin="round"/>
<path d="M14.2104 25.3552H16.8499" stroke="#83C000" stroke-width="2" stroke-miterlimit="10" stroke-linecap="round" stroke-linejoin="round"/>
<path d="M24.7692 35.7987C27.6847 35.7987 30.0481 33.4608 30.0481 30.577C30.0481 27.6931 27.6847 25.3552 24.7692 25.3552C21.8537 25.3552 19.4902 27.6931 19.4902 30.577C19.4902 33.4608 21.8537 35.7987 24.7692 35.7987Z" stroke="#83C000" stroke-width="2" stroke-miterlimit="10" stroke-linecap="round" stroke-linejoin="round"/>
<path d="M56.442 35.7987C59.3575 35.7987 61.721 33.4608 61.721 30.577C61.721 27.6931 59.3575 25.3552 56.442 25.3552C53.5266 25.3552 51.1631 27.6931 51.1631 30.577C51.1631 33.4608 53.5266 35.7987 56.442 35.7987Z" stroke="#83C000" stroke-width="2" stroke-miterlimit="10" stroke-linecap="round" stroke-linejoin="round"/>
</svg>
