<svg width="50" height="68" viewBox="0 0 50 68" fill="none" xmlns="http://www.w3.org/2000/svg">
<path d="M29.4001 0H1.59891C0.718889 0 0 0.722874 0 1.60777V66.3922C0 67.2771 0.718889 68 1.59891 68H48.3887C49.2687 68 49.9876 67.2771 49.9876 66.3922V22.2221C49.9876 21.3372 49.2687 20.6144 48.3887 20.6144C47.5087 20.6144 46.7898 21.3372 46.7898 22.2221V64.7845H3.21021V3.22801H29.4125C30.8131 3.22801 32.1269 3.77639 33.1185 4.77346L44.534 16.2522H33.8374V8.08871C33.8374 7.20381 33.1185 6.48094 32.2385 6.48094C31.3585 6.48094 30.6396 7.20381 30.6396 8.08871V17.8475C30.6396 18.7324 31.3585 19.4553 32.2385 19.4553H48.3887C49.0332 19.4553 49.6158 19.0689 49.8637 18.4582C50.1116 17.86 49.9752 17.162 49.5166 16.7009L35.3867 2.49267C33.7878 0.884897 31.6559 0 29.4001 0Z" fill="#83C000"/>
<path d="M40.5552 56.8953H9.44461C8.56459 56.8953 7.8457 57.6181 7.8457 58.503C7.8457 59.3879 8.56459 60.1108 9.44461 60.1108H40.5676C41.4476 60.1108 42.1665 59.3879 42.1665 58.503C42.1541 57.6181 41.4476 56.8953 40.5552 56.8953Z" fill="#83C000"/>
<path d="M40.5552 49.0183H9.44461C8.56459 49.0183 7.8457 49.7412 7.8457 50.6261C7.8457 51.511 8.56459 52.2339 9.44461 52.2339H40.5676C41.4476 52.2339 42.1665 51.511 42.1665 50.6261C42.1541 49.7412 41.4476 49.0183 40.5552 49.0183Z" fill="#83C000"/>
<path d="M40.5552 41.1416H9.44461C8.56459 41.1416 7.8457 41.8645 7.8457 42.7494C7.8457 43.6343 8.56459 44.3571 9.44461 44.3571H40.5676C41.4476 44.3571 42.1665 43.6343 42.1665 42.7494C42.1541 41.8645 41.4476 41.1416 40.5552 41.1416Z" fill="#83C000"/>
<path d="M40.5552 33.2646H9.44461C8.56459 33.2646 7.8457 33.9875 7.8457 34.8724C7.8457 35.7573 8.56459 36.4802 9.44461 36.4802H40.5676C41.4476 36.4802 42.1665 35.7573 42.1665 34.8724C42.1665 33.9875 41.4476 33.2646 40.5552 33.2646Z" fill="#83C000"/>
<path d="M24.8388 25.3755H9.44461C8.56459 25.3755 7.8457 26.0984 7.8457 26.9833C7.8457 27.8682 8.56459 28.591 9.44461 28.591H24.8388C25.7188 28.591 26.4377 27.8682 26.4377 26.9833C26.4377 26.0984 25.7188 25.3755 24.8388 25.3755Z" fill="#83C000"/>
<path d="M17.1418 8.11353C13.2747 8.11353 10.1265 11.2792 10.1265 15.1678C10.1265 19.0563 13.2747 22.222 17.1418 22.222C21.009 22.222 24.1572 19.0563 24.1572 15.1678C24.1572 11.2792 21.009 8.11353 17.1418 8.11353ZM17.1418 19.0065C15.0347 19.0065 13.3243 17.2865 13.3243 15.1678C13.3243 13.049 15.0347 11.3291 17.1418 11.3291C19.2489 11.3291 20.9594 13.049 20.9594 15.1678C20.9594 17.2865 19.2365 19.0065 17.1418 19.0065Z" fill="#83C000"/>
</svg>
