<svg width="70" height="70" viewBox="0 0 70 70" fill="none" xmlns="http://www.w3.org/2000/svg">
<path d="M16.63 45.79C12.38 45.79 8.36 44.93 5.31 43.36C1.88 41.6 0 39.12 0 36.39C0 33.66 1.88 31.19 5.3 29.43C8.36 27.86 12.38 27 16.62 27C20.87 27 24.89 27.86 27.94 29.43C31.36 31.19 33.24 33.66 33.24 36.39C33.24 39.12 31.36 41.59 27.94 43.35C24.89 44.92 20.88 45.79 16.63 45.79ZM16.63 30.48C8.89 30.48 3.49 33.6 3.49 36.39C3.49 39.19 8.89 42.3 16.63 42.3C24.38 42.3 29.77 39.18 29.77 36.39C29.77 33.6 24.38 30.48 16.63 30.48Z" fill="#83C000"/>
<path d="M52.58 44.43C48.33 44.43 44.31 43.57 41.26 42C37.83 40.24 35.96 37.77 35.96 35.04C35.96 32.31 37.84 29.84 41.26 28.08C44.32 26.51 48.34 25.65 52.58 25.65C56.83 25.65 60.85 26.51 63.9 28.08C67.32 29.84 69.2 32.31 69.2 35.04C69.2 37.77 67.32 40.24 63.9 42C60.84 43.56 56.82 44.43 52.58 44.43ZM52.58 29.12C44.83 29.12 39.44 32.24 39.44 35.03C39.44 37.83 44.83 40.94 52.58 40.94C60.33 40.94 65.72 37.82 65.72 35.03C65.72 32.23 60.33 29.12 52.58 29.12Z" fill="#83C000"/>
<path d="M52.58 51.95C48.33 51.95 44.31 51.09 41.26 49.52C37.83 47.76 35.96 45.29 35.96 42.56V35.03C35.96 34.07 36.74 33.29 37.7 33.29C38.66 33.29 39.45 34.07 39.45 35.03V42.56C39.45 45.36 44.84 48.47 52.59 48.47C59.69 48.47 64.79 45.83 65.61 43.28C65.91 42.36 66.88 41.86 67.8 42.16C68.72 42.45 69.22 43.44 68.93 44.35C67.47 48.83 60.75 51.95 52.58 51.95Z" fill="#83C000"/>
<path d="M16.63 69.24C12.38 69.24 8.36 68.38 5.31 66.81C1.88 65.05 0 62.57 0 59.84V52.31C0 51.35 0.78 50.57 1.74 50.57C2.7 50.57 3.49 51.35 3.49 52.31V59.84C3.49 62.64 8.89 65.75 16.63 65.75C23.74 65.75 28.84 63.11 29.66 60.56C29.96 59.64 30.93 59.14 31.85 59.44C32.76 59.74 33.26 60.72 32.97 61.63C31.53 66.11 24.81 69.24 16.63 69.24Z" fill="#83C000"/>
<path d="M16.63 61.71C12.38 61.71 8.36 60.85 5.31 59.28C1.88 57.52 0 55.05 0 52.32V44.79C0 43.83 0.78 43.05 1.74 43.05C2.7 43.05 3.49 43.83 3.49 44.79V52.32C3.49 55.12 8.89 58.23 16.63 58.23C23.74 58.23 28.84 55.59 29.66 53.04C29.96 52.12 30.93 51.62 31.85 51.92C32.76 52.22 33.26 53.2 32.97 54.11C31.53 58.59 24.81 61.71 16.63 61.71Z" fill="#83C000"/>
<path d="M16.63 54.19C12.38 54.19 8.36 53.33 5.31 51.75C1.88 49.99 0 47.52 0 44.79V37.26C0 36.3 0.78 35.52 1.74 35.52C2.7 35.52 3.49 36.3 3.49 37.26V44.79C3.49 47.59 8.89 50.7 16.63 50.7C23.74 50.7 28.84 48.06 29.66 45.51C29.96 44.59 30.93 44.09 31.85 44.39C32.76 44.69 33.26 45.67 32.97 46.58C31.53 51.06 24.81 54.19 16.63 54.19Z" fill="#83C000"/>
<path d="M52.58 59.48C48.33 59.48 44.31 58.62 41.26 57.05C37.83 55.29 35.96 52.82 35.96 50.09V42.56C35.96 41.6 36.74 40.82 37.7 40.82C38.66 40.82 39.45 41.6 39.45 42.56V50.09C39.45 52.89 44.84 56 52.59 56C59.69 56 64.79 53.36 65.61 50.81C65.91 49.89 66.88 49.39 67.8 49.69C68.72 49.99 69.22 50.97 68.93 51.88C67.47 56.35 60.75 59.48 52.58 59.48Z" fill="#83C000"/>
<path d="M30.1998 18.79C25.9398 18.79 21.9198 17.92 18.8798 16.36C15.4498 14.6 13.5698 12.13 13.5698 9.4C13.5698 6.67 15.4498 4.2 18.8798 2.44C21.9198 0.86 25.9398 0 30.1998 0C34.4398 0 38.4598 0.86 41.5198 2.43C44.9398 4.19 46.8298 6.66 46.8298 9.39C46.8298 12.12 44.9398 14.59 41.5198 16.35C38.4498 17.93 34.4298 18.79 30.1998 18.79ZM30.1998 3.48C22.4398 3.48 17.0498 6.6 17.0498 9.39C17.0498 12.19 22.4398 15.3 30.1998 15.3C37.9398 15.3 43.3298 12.18 43.3298 9.39C43.3298 6.6 37.9398 3.48 30.1998 3.48Z" fill="#83C000"/>
<path d="M30.1998 26.32C25.9398 26.32 21.9198 25.45 18.8798 23.89C15.4498 22.13 13.5698 19.66 13.5698 16.93V9.4C13.5698 8.44 14.3498 7.66 15.3198 7.66C16.2798 7.66 17.0598 8.44 17.0598 9.4V16.93C17.0598 19.73 22.4498 22.84 30.2098 22.84C37.3098 22.84 42.4098 20.2 43.2298 17.65C43.5298 16.74 44.4998 16.23 45.4198 16.53C46.3298 16.82 46.8398 17.81 46.5498 18.72C45.0898 23.19 38.3698 26.32 30.1998 26.32Z" fill="#83C000"/>
<path d="M15.3101 31.38C14.3401 31.38 13.5601 30.6 13.5601 29.64V16.92C13.5601 15.96 14.3401 15.18 15.3101 15.18C16.2701 15.18 17.0501 15.96 17.0501 16.92V29.64C17.0401 30.6 16.2701 31.38 15.3101 31.38Z" fill="#83C000"/>
</svg>
