<svg width="42" height="62" viewBox="0 0 42 62" fill="none" xmlns="http://www.w3.org/2000/svg">
<path fill-rule="evenodd" clip-rule="evenodd" d="M39.68 10.3601C40.83 10.3601 41.77 11.29 41.77 12.4401L41.94 58.8501C41.94 60.0001 41.02 60.9401 39.87 60.9401L2.25 61.0801C1.10999 61.0801 0.169983 60.1502 0.169983 59.0001L0.0599976 23.8101C0.0599976 23.3101 0.460022 22.9102 0.950012 22.9102C1.44 22.9102 1.84003 23.3101 1.84003 23.8001L1.96997 58.9901C1.96997 59.1602 2.10999 59.29 2.27002 59.29L39.88 59.1502C40.05 59.1502 40.18 59.0201 40.18 58.8501L40.01 12.4401C40.01 12.2701 39.87 12.1401 39.71 12.1401L33.77 12.1602C33.78 12.4002 33.8 12.6401 33.8 12.8801V14.3701C34.68 15.0901 35.26 16.2001 35.26 17.4301C35.27 19.6101 33.51 21.3901 31.33 21.4002C29.15 21.4102 27.37 19.6401 27.37 17.4601C27.37 16.2301 27.93 15.1201 28.81 14.3901V12.9002C28.81 12.6608 28.7901 12.4213 28.7702 12.1819L28.77 12.1801L13.03 12.2401C13 12.4801 13 12.7201 13 12.9601V14.4501C13.88 15.17 14.46 16.2802 14.46 17.5101C14.47 19.6901 12.7 21.4801 10.53 21.4801C8.34998 21.4901 6.57001 19.7201 6.57001 17.54C6.56 16.3101 7.12 15.2001 8 14.4701V12.9801C8 12.7401 8.01001 12.5001 8.02002 12.2601L2.08002 12.2802C1.90997 12.2802 1.78003 12.4102 1.78003 12.5801L1.81 19.6301C1.81 20.1301 1.40997 20.5302 0.919983 20.5302C0.429993 20.5302 0.0300293 20.1301 0.0300293 19.6401L0 12.5901C0 11.4401 0.919983 10.5001 2.07001 10.4901L8.22998 10.4701C9.38 4.5301 14.59 0.0200865 20.84 6.69786e-05C27.09 -0.0199526 32.33 4.45008 33.52 10.3801L39.68 10.3601ZM8.34003 17.5501C8.34003 18.7401 9.32001 19.7101 10.51 19.7101C11.71 19.7101 12.67 18.7301 12.67 17.5302C12.67 16.3401 11.69 15.3701 10.5 15.3701C9.29999 15.3701 8.34003 16.3501 8.34003 17.5501ZM13.3833 10.4501L28.37 10.4002C27.31 7.26008 24.35 5.00007 20.86 5.01008C17.3737 5.02009 14.4262 7.30524 13.3833 10.4501ZM11.2 12.9801C11.18 7.84009 15.43 3.24006 20.85 3.2201V3.24006C26.3 3.2201 30.55 7.81006 30.57 12.92V13.5801C30.7 13.5575 30.8333 13.5381 30.9678 13.5255C31.0714 13.5159 31.1757 13.5101 31.28 13.5101C31.52 13.5001 31.76 13.5302 31.99 13.5701V12.9002C31.97 6.75007 26.96 1.77009 20.84 1.79011C14.72 1.81006 9.76001 6.83008 9.78003 12.9801V13.6502C9.90674 13.6281 10.0366 13.609 10.1677 13.5963C10.2745 13.5861 10.3823 13.5801 10.49 13.5801C10.73 13.5801 10.97 13.6001 11.2 13.6401V12.9801ZM29.14 17.4701C29.14 18.6602 30.12 19.6301 31.31 19.6301C32.51 19.6301 33.47 18.6502 33.47 17.4501C33.47 16.2601 32.49 15.29 31.3 15.29C30.1 15.29 29.14 16.2701 29.14 17.4701ZM23.21 26.12C23.21 25.63 22.81 25.23 22.32 25.23L13.75 25.26C12.79 25.26 12.01 26.0501 12.01 27.02L12.06 41.4399C12.06 42.41 12.85 43.1899 13.81 43.1899L28.18 43.14C29.14 43.14 29.92 42.35 29.92 41.38L29.87 26.96C29.87 25.99 29.08 25.21 28.12 25.21H26.48C25.99 25.21 25.59 25.62 25.59 26.11C25.59 26.6 25.99 27 26.48 27H28.09L28.11 33L27.39 32.47C25.9 31.36 23.84 31.48 22.49 32.74L18.21 36.73C17.67 37.23 16.86 37.3101 16.24 36.9301L13.82 35.45L13.79 27.04L22.33 27.01C22.82 27.01 23.22 26.61 23.22 26.12H23.21ZM15.31 38.46C15.86 38.8001 16.48 38.96 17.1 38.96C17.94 38.96 18.78 38.65 19.42 38.0501L23.7 34.0601C24.43 33.38 25.53 33.32 26.33 33.9201L28.12 35.25L28.14 41.36L13.84 41.41V37.5601L15.31 38.46ZM15.51 30.9C15.51 32.38 16.72 33.58 18.19 33.57C19.66 33.57 20.86 32.36 20.85 30.88C20.85 29.4 19.64 28.2 18.17 28.21C16.69 28.21 15.5 29.42 15.51 30.9ZM19.07 30.89C19.07 31.38 18.67 31.79 18.18 31.79C17.69 31.79 17.29 31.39 17.29 30.9C17.29 30.41 17.69 30 18.18 30C18.67 30 19.07 30.4 19.07 30.89Z" fill="#012E71"/>
</svg>
