<svg width="42" height="62" viewBox="0 0 42 62" fill="none" xmlns="http://www.w3.org/2000/svg">
<path d="M23.2542 26.9208C23.2524 26.4283 22.8521 26.0294 22.3614 26.0312L13.7924 26.0625C12.8285 26.066 12.0479 26.8553 12.0514 27.8228L12.1041 42.2452C12.1076 43.2127 12.8939 43.9963 13.8578 43.9928L28.2261 43.9403C29.19 43.9368 29.9706 43.1475 29.967 42.18L29.9144 27.7576C29.9109 26.7917 29.1245 26.0065 28.1606 26.01L26.5162 26.016C26.0239 26.0178 25.6281 26.4196 25.6299 26.9121C25.6317 27.4062 26.032 27.8035 26.5227 27.8018L28.1339 27.7959L28.1559 33.8044L27.4369 33.27C25.9514 32.1633 23.8895 32.2789 22.5329 33.5406L18.2518 37.5296C17.7155 38.0289 16.9054 38.1112 16.2804 37.7291L13.8628 36.2524L13.8322 27.8465L22.3679 27.8153C22.8602 27.8167 23.256 27.4149 23.2542 26.9208ZM15.3553 39.2576C15.9057 39.594 16.5268 39.7586 17.1441 39.7563C17.9845 39.7532 18.8191 39.442 19.4642 38.8423L23.7453 34.8516C24.4725 34.1737 25.5802 34.1125 26.3769 34.707L28.164 36.0382L28.1863 42.1531L13.8846 42.2053L13.8705 38.3527L15.3553 39.2576Z" fill="#012E71"/>
<path d="M15.554 31.7041C15.5594 33.1833 16.762 34.3817 18.2357 34.3763C19.7093 34.3709 20.9031 33.1638 20.8977 31.6846C20.8923 30.2054 19.6897 29.0071 18.2161 29.0125C16.7409 29.0178 15.5486 30.2265 15.554 31.7041ZM19.117 31.6911C19.1188 32.1853 18.7198 32.5871 18.2292 32.5889C17.7385 32.5907 17.3365 32.1918 17.3347 31.6976C17.3329 31.2051 17.7319 30.8017 18.2226 30.7999C18.7133 30.7981 19.1152 31.1986 19.117 31.6911Z" fill="#012E71"/>
<path d="M39.7304 11.1623L33.5671 11.1848C32.379 5.25358 27.1363 0.781337 20.8844 0.804153C14.6326 0.826969 9.42428 5.33735 8.27787 11.2771L2.11463 11.2996C0.970295 11.3037 0.0414677 12.2429 0.0456655 13.3931L0.0713915 20.4423C0.0731889 20.9348 0.471921 21.3337 0.964158 21.3319C1.45481 21.3301 1.8522 20.9283 1.85041 20.4358L1.82468 13.3866C1.82408 13.2214 1.95654 13.0875 2.12115 13.0869L8.05964 13.0652C8.04786 13.3051 8.04082 13.5451 8.04171 13.7881L8.04716 15.2815C7.16505 16.0108 6.60245 17.117 6.60695 18.3515C6.61492 20.5344 8.39092 22.3041 10.5656 22.2962C12.7403 22.2882 14.5034 20.5056 14.4954 18.3227C14.4909 17.0883 13.9202 15.9862 13.0328 15.2618L13.0274 13.77C13.0265 13.5253 13.0383 13.2853 13.0596 13.047L28.7985 12.9895C28.8215 13.2277 28.835 13.4692 28.8359 13.7123L28.8414 15.2041C27.9577 15.9333 27.3951 17.0396 27.3996 18.2756C27.4076 20.4585 29.1836 22.2282 31.3583 22.2203C33.533 22.2124 35.296 20.4297 35.288 18.2468C35.2835 17.0124 34.7129 15.9103 33.8255 15.1859L33.82 13.6941C33.8191 13.451 33.8103 13.2111 33.7968 12.9713L39.7353 12.9496C39.8999 12.949 40.0333 13.082 40.034 13.2472L40.2033 59.6569C40.2039 59.8221 40.0715 59.9561 39.9069 59.9567L2.2927 60.0939C2.1281 60.0945 1.99466 59.9616 1.99405 59.7963L1.86563 24.6062C1.86382 24.1121 1.46351 23.7148 0.972861 23.7166C0.480624 23.7184 0.084814 24.1202 0.0866114 24.6127L0.215038 59.8028C0.21923 60.9515 1.15489 61.8838 2.29922 61.8797L39.915 61.7424C41.0609 61.7382 41.9897 60.799 41.9855 59.6488L41.8161 13.2407C41.8119 12.0905 40.8763 11.1581 39.7304 11.1623ZM10.5607 20.5105C9.3673 20.5148 8.39351 19.5445 8.38914 18.3466C8.38477 17.1487 9.35144 16.1712 10.5448 16.1669C11.7382 16.1625 12.712 17.1329 12.7164 18.3308C12.7208 19.5287 11.7541 20.5061 10.5607 20.5105ZM13.4282 11.2583C14.466 8.10719 17.4191 5.82134 20.9043 5.80862C24.3895 5.7959 27.3591 8.06014 28.4184 11.2036L13.4282 11.2583ZM31.3533 20.4346C30.1599 20.4389 29.1862 19.4686 29.1818 18.2707C29.1774 17.0728 30.1441 16.0954 31.3375 16.091C32.5309 16.0867 33.5047 17.057 33.509 18.2549C33.5134 19.4528 32.5467 20.4302 31.3533 20.4346ZM31.331 14.3021C31.0872 14.303 30.8499 14.3277 30.619 14.3698L30.6165 13.7058C30.5979 8.59643 26.3456 4.00142 20.8978 4.02131C15.4816 4.04107 11.2312 8.6401 11.2499 13.7764L11.2524 14.4405C11.0211 14.3985 10.7836 14.3771 10.5399 14.378C10.2962 14.3789 10.0588 14.4036 9.8279 14.4473L9.82547 13.7816C9.80303 7.63329 14.7689 2.61381 20.8925 2.59146C27.0162 2.56911 32.0186 7.55221 32.041 13.7006L32.0434 14.3662C31.8122 14.3242 31.5731 14.3012 31.331 14.3021Z" fill="#012E71"/>
<path d="M29.4004 49.5349C29.3986 49.0408 28.9982 48.6435 28.5076 48.6453L13.6123 48.6996C13.1201 48.7014 12.7242 49.1032 12.726 49.5957C12.7278 50.0898 13.1281 50.4872 13.6188 50.4854L28.5141 50.431C29.0048 50.4292 29.4022 50.0274 29.4004 49.5349Z" fill="#012E71"/>
<path d="M17.2214 53.1269C16.7291 53.1287 16.3333 53.5305 16.3351 54.023C16.3369 54.5171 16.7372 54.9144 17.2279 54.9126L24.9359 54.8845C25.4281 54.8827 25.8239 54.4809 25.8221 53.9884C25.8203 53.4943 25.42 53.097 24.9294 53.0988L17.2214 53.1269Z" fill="#012E71"/>
</svg>
