<svg width="28" height="65" viewBox="0 0 28 65" fill="none" xmlns="http://www.w3.org/2000/svg">
<path d="M20.32 55.39C20.3 55.95 19.84 56.38 19.27 56.38H7.75C7.18 56.38 6.72 55.94 6.7 55.39L5.6 25.77H21.42L20.32 55.39ZM5.33 23.96C4.91 23.96 4.49 24.13 4.2 24.43C3.91 24.73 3.75 25.14 3.76 25.56L4.87 55.45C4.93 56.98 6.19 58.18 7.75 58.18H19.28C20.84 58.18 22.1 56.98 22.16 55.45L23.27 25.56C23.29 25.14 23.13 24.73 22.83 24.43C22.54 24.13 22.12 23.96 21.7 23.96H5.33ZM25.17 62.8C25.17 63.01 24.99 63.19 24.78 63.19H2.24C2.02 63.19 1.85 63.02 1.85 62.8V22.62C1.85 22.41 2.03 22.23 2.24 22.23H24.78C25 22.23 25.17 22.4 25.17 22.62V62.81V62.8ZM3.91 18.69H23.11C23.33 18.69 23.5 18.86 23.5 19.08V20.43H3.52V19.08C3.52 18.87 3.7 18.69 3.91 18.69ZM7.11 10.72C7.11 10.51 7.29 10.33 7.5 10.33H19.51C19.73 10.33 19.9 10.5 19.9 10.72V16.88H7.11V10.72ZM10.09 2.19C10.09 1.98 10.27 1.8 10.48 1.8H16.92V8.53H10.09V2.19ZM20.67 3.69H18.76V1.81H20.67V3.69ZM25.33 20.5V19.08C25.33 17.87 24.33 16.89 23.1 16.89H21.73V10.73C21.73 9.52 20.73 8.54 19.5 8.54H18.75V5.5H21.58C22.09 5.5 22.5 5.1 22.5 4.6V0.9C22.5 0.4 22.09 0 21.58 0H10.49C9.26 0 8.26 0.98 8.26 2.19V8.53H7.51C6.28 8.53 5.28 9.51 5.28 10.72V16.88H3.91C2.68 16.88 1.68 17.86 1.68 19.07V20.49C0.72 20.73 0 21.59 0 22.61V62.81C0 64.02 1 65 2.23 65H24.78C26.01 65 27.01 64.02 27.01 62.81V22.62C27.01 21.6 26.3 20.74 25.33 20.5Z" fill="#012E71"/>
</svg>
