<svg width="27" height="66" viewBox="0 0 27 66" fill="none" xmlns="http://www.w3.org/2000/svg">
<path d="M25.324 21.2277V19.8061C25.324 18.5973 24.3242 17.613 23.0964 17.613H21.731V11.4532C21.731 10.2445 20.7312 9.26019 19.5034 9.26019H18.7513V6.22349H21.5817C22.0888 6.22349 22.4989 5.81972 22.4989 5.32048V1.63104C22.4989 1.1318 22.0888 0.728027 21.5817 0.728027H10.4777C9.24984 0.728027 8.25004 1.71231 8.25004 2.92105V9.26019H7.49789C6.27008 9.26019 5.27027 10.2445 5.27027 11.4532V17.6117H3.90357C2.67576 17.6117 1.67595 18.596 1.67595 19.8048V21.2264C0.714147 21.4702 0 22.328 0 23.3497V63.535C0 64.7437 0.999806 65.728 2.22761 65.728H24.7724C26.0002 65.728 27 64.7437 27 63.535V23.3497C27 22.328 26.2859 21.4702 25.324 21.2277ZM20.6631 4.41747H18.75V2.53405H20.6631V4.41747ZM10.0832 2.92105C10.0832 2.7082 10.2601 2.53405 10.4763 2.53405H16.9155V9.26019H10.0832V2.92105ZM7.10347 11.4532C7.10347 11.2404 7.28037 11.0662 7.49658 11.0662H19.5034C19.7196 11.0662 19.8965 11.2404 19.8965 11.4532V17.6117H7.10347V11.4532ZM3.90357 19.4191H23.0964C23.3126 19.4191 23.4895 19.5932 23.4895 19.8061V21.1567H3.51046V19.8061C3.51046 19.5919 3.68736 19.4191 3.90357 19.4191ZM25.1655 63.535C25.1655 63.7479 24.9886 63.922 24.7724 63.922H2.22761C2.0114 63.922 1.83451 63.7479 1.83451 63.535V23.3497C1.83451 23.1369 2.0114 22.9627 2.22761 22.9627H24.7724C24.9886 22.9627 25.1655 23.1369 25.1655 23.3497V63.535ZM21.6826 24.6901H5.31745C4.89289 24.6901 4.48013 24.8629 4.1853 25.1635C3.89046 25.4641 3.7306 25.8769 3.74632 26.2948L4.8562 56.1832C4.91255 57.717 6.17836 58.918 7.73769 58.918H19.2636C20.8216 58.918 22.0875 57.717 22.1451 56.1832L23.255 26.2948C23.2707 25.8769 23.1108 25.4654 22.816 25.1635C22.5212 24.8616 22.1071 24.6901 21.6826 24.6901ZM20.3106 56.1161C20.2896 56.6734 19.8297 57.1107 19.2636 57.1107H7.73637C7.1703 57.1107 6.70905 56.6734 6.6894 56.1161L5.58869 26.4948H21.4113L20.3106 56.1161Z" fill="#012E71"/>
</svg>
