<svg width="51" height="58" viewBox="0 0 51 58" fill="none" xmlns="http://www.w3.org/2000/svg">
<path d="M50.6001 18.1336C49.8101 12.2436 47.0901 7.41359 42.3701 5.3636L42.3301 5.3436C41.7901 5.1136 35.0901 2.39359 31.7301 1.0936C31.6701 1.0636 31.6201 1.03359 31.5601 1.00359C31.1001 0.803595 30.6301 0.633595 30.1501 0.493595C30.0201 0.443595 29.9201 0.413595 29.8701 0.403595C25.6001 -0.736405 20.8301 0.603595 16.4601 3.6036C11.4801 7.0336 6.86013 12.6736 3.72013 19.7236C0.570127 26.7736 -0.539873 33.9736 0.240127 39.9436C1.02013 45.8936 3.74013 50.7936 8.42013 52.8636C8.84013 53.0536 9.27013 53.2036 9.70013 53.3336C11.5901 54.0136 18.8201 56.5636 19.0001 56.6436C23.7101 58.6936 29.2201 57.4336 34.2301 54.0736C39.2501 50.7036 43.9201 45.1136 47.1001 38.1436C50.2801 31.1736 51.4001 24.0436 50.6101 18.1336H50.6001ZM2.23013 39.6736C1.50013 34.1236 2.53013 27.2936 5.55013 20.5336C8.57013 13.7636 12.9701 8.4336 17.6001 5.2636C22.2401 2.0836 26.9501 1.15359 30.7601 2.8436C31.9601 3.37359 33.0201 4.1736 33.9401 5.1636C26.8001 8.1436 18.6501 15.2736 14.6601 23.9536C12.0601 29.5936 10.8201 35.3236 10.8601 40.4336C10.8901 44.0036 12.3701 48.4136 14.1601 51.8336C12.4201 51.9636 10.7701 51.7136 9.25013 51.0436C5.45013 49.3536 2.98013 45.2536 2.24013 39.6836L2.23013 39.6736ZM16.4701 24.7836C20.4401 16.1636 28.5901 9.39359 35.2301 6.8036C36.5101 8.7836 37.3801 11.2836 37.7701 14.2036C38.5001 19.7536 37.4701 26.5836 34.4501 33.3436C31.4301 40.1136 27.0301 45.4436 22.4001 48.6136C20.3301 50.0336 18.2501 51.0036 16.2401 51.4936C14.5001 48.3436 12.8801 43.9636 12.8601 40.4136C12.8201 35.6236 13.9901 30.1836 16.4801 24.7836H16.4701ZM45.2801 37.3136C42.2301 44.0036 37.7901 49.2736 33.1201 52.4136C28.4301 55.5636 23.6601 56.4836 19.8101 54.8136C19.7601 54.7936 19.0201 54.5336 17.9901 54.1736C17.7701 53.9036 17.5501 53.6036 17.3301 53.2736C19.4301 52.6736 21.5301 51.6536 23.5401 50.2736C28.5201 46.8636 33.1401 41.2136 36.2801 34.1636C39.4201 27.1136 40.5401 19.9136 39.7501 13.9436C39.3601 11.0236 38.5101 8.3536 37.1901 6.1436C37.5901 6.0336 37.9801 5.9436 38.3701 5.8736C40.0501 6.5636 41.3601 7.1036 41.5601 7.1836C45.4101 8.8536 47.8901 12.9136 48.6301 18.4036C49.3701 23.8836 48.3301 30.6236 45.2801 37.3136Z" fill="#012E71"/>
</svg>
