<svg width="33" height="66" viewBox="0 0 33 66" fill="none" xmlns="http://www.w3.org/2000/svg">
<path d="M32.629 24.936L25.409 13.986L25.349 13.896C25.439 13.136 25.479 12.336 25.429 11.526C25.239 7.87597 23.539 3.98597 18.589 1.32597C13.459 -1.42403 8.73896 0.575971 5.48896 3.04597C3.84896 4.28597 2.51896 5.68597 1.60896 6.76597C1.14896 7.30597 0.798964 7.77597 0.548964 8.10597C0.428964 8.27597 0.338964 8.40597 0.268964 8.49597C0.238964 8.54597 0.208964 8.58597 0.198964 8.60597C0.188964 8.61597 0.178964 8.62597 0.178964 8.63597H0.168964V8.65597C-0.141036 9.11597 -0.0110356 9.73597 0.448964 10.036C0.908964 10.336 1.52896 10.216 1.83896 9.74597C1.83896 9.74597 1.84896 9.74597 1.84896 9.72597C1.86896 9.70597 1.88896 9.67597 1.91896 9.63597C1.96896 9.55597 2.04896 9.43597 2.15896 9.28597C2.38896 8.98597 2.71896 8.55597 3.13896 8.05597C3.98896 7.04597 5.20896 5.76597 6.69896 4.63597C9.67896 2.37597 13.519 0.875971 17.639 3.08597C21.929 5.39597 23.279 8.61597 23.439 11.626C23.469 12.266 23.439 12.886 23.379 13.496L15.669 13.266L15.099 13.246L14.799 13.716L8.14896 24.016L7.99896 24.256V24.536L6.80896 65.356H7.83896L30.999 65.306H31.979L32.789 25.506V25.196L32.629 24.936ZM30.019 63.316L8.86896 63.346L9.97896 24.866L16.169 15.276L23.059 15.486C22.699 17.006 22.179 18.316 21.769 19.156C21.589 19.536 21.419 19.886 21.249 20.226C19.329 19.796 17.269 20.606 16.219 22.386C14.899 24.616 15.639 27.476 17.859 28.786C20.089 30.096 22.949 29.366 24.259 27.146C25.479 25.086 24.919 22.496 23.069 21.076C23.229 20.746 23.389 20.396 23.569 20.036C23.949 19.246 24.429 18.086 24.809 16.706L30.789 25.776L30.019 63.316ZM19.829 25.676C20.339 25.906 20.929 25.676 21.149 25.176C21.149 25.176 21.159 25.156 21.159 25.146C21.169 25.136 21.179 25.116 21.189 25.086C21.219 25.026 21.259 24.936 21.309 24.816C21.419 24.586 21.579 24.236 21.779 23.786C21.899 23.536 22.029 23.256 22.179 22.946C22.969 23.786 23.159 25.076 22.539 26.126C21.789 27.396 20.149 27.816 18.879 27.066C17.609 26.316 17.189 24.676 17.939 23.406C18.459 22.526 19.409 22.066 20.359 22.106C20.219 22.416 20.079 22.696 19.969 22.946C19.759 23.396 19.599 23.756 19.489 23.986C19.439 24.106 19.399 24.206 19.369 24.266C19.349 24.296 19.339 24.316 19.339 24.336C19.339 24.336 19.339 24.3426 19.339 24.356H19.329C19.109 24.866 19.339 25.456 19.839 25.676H19.829Z" fill="#012E71"/>
</svg>
