<svg width="82" height="94" viewBox="0 0 82 94" fill="none" xmlns="http://www.w3.org/2000/svg">
<path d="M30.7485 36.2521L29.6017 76.0387L52.7632 75.9988L53.5516 37.1718L46.3364 26.2246L37.3969 25.9527L30.7485 36.2521Z" stroke="#012E71" stroke-width="2" stroke-miterlimit="10"/>
<path d="M22.7625 20.8905C22.7625 20.8905 30.6279 8.92905 39.8724 13.8964C49.1169 18.8638 45.9705 28.1203 44.4298 31.2865C42.8891 34.4526 41.9987 36.4555 41.9987 36.4555" stroke="#012E71" stroke-width="2" stroke-miterlimit="10" stroke-linecap="round"/>
<path d="M40.132 39.6172C41.8782 40.6482 44.1295 40.0684 45.1605 38.3222C46.1914 36.576 45.6116 34.3247 43.8654 33.2937C42.1192 32.2628 39.8679 32.8426 38.837 34.5888C37.806 36.335 38.3858 38.5863 40.132 39.6172Z" stroke="#012E71" stroke-width="2" stroke-miterlimit="10"/>
</svg>
