<svg width="60" height="51" viewBox="0 0 60 51" fill="none" xmlns="http://www.w3.org/2000/svg">
<path d="M57.59 8.64C56.22 7.16 54.14 6.29 52.02 6.29H42.93V1.27C42.93 0.64 42.46 0 41.75 0H1.1C0.5 0 0 0.47 0 1.09V49.16C0 49.77 0.49 50.26 1.1 50.26H41.85C42.46 50.26 42.95 49.77 42.95 49.16V39.38H49.34C49.34 39.38 49.42 39.37 49.49 39.36C52.08 39.02 53.82 38.27 55.02 37.06C56.21 35.86 56.8 34.25 57.22 32.33V32.27L57.23 32.22H57.24L59.42 14.56V14.48C59.44 14.22 59.45 13.98 59.45 13.74C59.45 11.74 58.82 9.98 57.59 8.64ZM33.03 10.01H38.1V19.81H29.76C29.83 16.53 29.9 13.27 29.96 10H33.04L33.03 10.01ZM40.75 48.06H2.19V2.19H33V7.81H28.87C28.25 7.81 27.8 8.33 27.78 8.89C27.7 12.9 27.62 16.9 27.54 20.91V20.93C27.54 21.54 28.07 22.02 28.64 22.02H39.21C39.49 22.02 39.76 21.92 39.96 21.71L39.97 21.7L39.98 21.68C40.18 21.49 40.29 21.23 40.29 20.92V8.91C40.29 8.32 39.8 7.81 39.19 7.81H35.18V2.54L40.74 2.53V48.06H40.75ZM55.06 31.91C54.68 33.6 54.24 34.75 53.44 35.56C52.63 36.36 51.39 36.89 49.25 37.19H42.94V35.07H46.42C48.36 35.07 49.81 34.66 50.82 33.67C51.87 32.64 52.29 31.13 52.58 29.79V29.74L52.59 29.68L54.03 16.52C54.17 14.66 53.85 13.23 52.94 12.22C52.36 11.59 51.62 11.24 50.85 11.05C50.08 10.85 49.29 10.82 48.59 10.82H42.92V8.49H52.01C53.54 8.49 55.01 9.12 55.96 10.14C56.9 11.16 57.35 12.59 57.22 14.34L55.05 31.91H55.06ZM42.95 32.87V13.01H48.62C49.18 13.01 49.74 13.03 50.23 13.14C50.73 13.25 51.1 13.43 51.35 13.7C51.69 14.06 51.9 14.67 51.9 15.64C51.9 15.85 51.89 16.06 51.87 16.3L50.44 29.36C50.12 30.79 49.79 31.63 49.25 32.13C48.73 32.61 47.93 32.87 46.43 32.87H42.95Z" fill="#012E71"/>
</svg>
