<svg width="40" height="75" viewBox="0 0 40 75" fill="none" xmlns="http://www.w3.org/2000/svg">
<mask id="path-1-outside-1_1_1696" maskUnits="userSpaceOnUse" x="1.67899" y="31.9878" width="35" height="43" fill="black">
<rect fill="white" x="1.67899" y="31.9878" width="35" height="43"/>
<path d="M29.4609 33.6214L29.3678 33.8637H33.6821L33.7753 33.6214H29.4609ZM27.4389 33.6214L27.5321 33.0717H21.382L21.2795 33.6214H12.5577L12.567 33.8637H28.2962L28.3334 33.6214H27.4389ZM27.4389 33.6214L27.5321 33.0717H21.382L21.2795 33.6214H9.82746L9.91133 33.8637H33.6821L33.7753 33.6214H27.4389ZM27.4389 33.6214L27.5321 33.0717H21.382L21.2795 33.6214H9.82746L9.91133 33.8637H33.6821L33.7753 33.6214H27.4389ZM27.4389 33.6214L27.5321 33.0717H21.382L21.2795 33.6214H9.82746L9.91133 33.8637H33.6821L33.7753 33.6214H27.4389ZM27.4389 33.6214L27.5321 33.0717H21.382L21.2795 33.6214H9.82746L9.91133 33.8637H33.6821L33.7753 33.6214H27.4389ZM27.4389 33.6214L27.5321 33.0717H21.382L21.2795 33.6214H9.82746L9.91133 33.8637H33.6821L33.7753 33.6214H27.4389ZM35.9651 33.1276C35.9464 33.1089 35.9185 33.0903 35.8998 33.0717C35.816 33.0157 35.7321 32.9878 35.6389 32.9878H3.11835C3.02516 32.9878 2.9413 33.0157 2.85744 33.0717C2.8388 33.0903 2.81085 33.1089 2.79221 33.1276C2.70835 33.2207 2.67107 33.3419 2.68039 33.463L5.91381 73.4382C5.93245 73.6711 6.11881 73.8482 6.35177 73.8482H32.4055C32.6385 73.8482 32.8248 73.6711 32.8434 73.4382L36.0769 33.463C36.0862 33.3419 36.0489 33.2207 35.9651 33.1276ZM32.0048 72.9629H6.75245L3.59358 33.8637H35.1637L32.0048 72.9629ZM27.4389 33.6214L27.5321 33.0717H21.382L21.2795 33.6214H9.82746L9.91133 33.8637H33.6821L33.7753 33.6214H27.4389ZM27.4389 33.6214L27.5321 33.0717H21.382L21.2795 33.6214H9.82746L9.91133 33.8637H33.6821L33.7753 33.6214H27.4389ZM27.4389 33.6214L27.5321 33.0717H21.382L21.2795 33.6214H9.82746L9.91133 33.8637H33.6821L33.7753 33.6214H27.4389ZM27.4389 33.6214L27.5321 33.0717H21.382L21.2795 33.6214H9.82746L9.91133 33.8637H33.6821L33.7753 33.6214H27.4389ZM27.4389 33.6214L27.5321 33.0717H21.382L21.2795 33.6214H9.82746L9.91133 33.8637H33.6821L33.7753 33.6214H27.4389Z"/>
</mask>
<path d="M29.4609 33.6214L29.3678 33.8637H33.6821L33.7753 33.6214H29.4609ZM27.4389 33.6214L27.5321 33.0717H21.382L21.2795 33.6214H12.5577L12.567 33.8637H28.2962L28.3334 33.6214H27.4389ZM27.4389 33.6214L27.5321 33.0717H21.382L21.2795 33.6214H9.82746L9.91133 33.8637H33.6821L33.7753 33.6214H27.4389ZM27.4389 33.6214L27.5321 33.0717H21.382L21.2795 33.6214H9.82746L9.91133 33.8637H33.6821L33.7753 33.6214H27.4389ZM27.4389 33.6214L27.5321 33.0717H21.382L21.2795 33.6214H9.82746L9.91133 33.8637H33.6821L33.7753 33.6214H27.4389ZM27.4389 33.6214L27.5321 33.0717H21.382L21.2795 33.6214H9.82746L9.91133 33.8637H33.6821L33.7753 33.6214H27.4389ZM27.4389 33.6214L27.5321 33.0717H21.382L21.2795 33.6214H9.82746L9.91133 33.8637H33.6821L33.7753 33.6214H27.4389ZM35.9651 33.1276C35.9464 33.1089 35.9185 33.0903 35.8998 33.0717C35.816 33.0157 35.7321 32.9878 35.6389 32.9878H3.11835C3.02516 32.9878 2.9413 33.0157 2.85744 33.0717C2.8388 33.0903 2.81085 33.1089 2.79221 33.1276C2.70835 33.2207 2.67107 33.3419 2.68039 33.463L5.91381 73.4382C5.93245 73.6711 6.11881 73.8482 6.35177 73.8482H32.4055C32.6385 73.8482 32.8248 73.6711 32.8434 73.4382L36.0769 33.463C36.0862 33.3419 36.0489 33.2207 35.9651 33.1276ZM32.0048 72.9629H6.75245L3.59358 33.8637H35.1637L32.0048 72.9629ZM27.4389 33.6214L27.5321 33.0717H21.382L21.2795 33.6214H9.82746L9.91133 33.8637H33.6821L33.7753 33.6214H27.4389ZM27.4389 33.6214L27.5321 33.0717H21.382L21.2795 33.6214H9.82746L9.91133 33.8637H33.6821L33.7753 33.6214H27.4389ZM27.4389 33.6214L27.5321 33.0717H21.382L21.2795 33.6214H9.82746L9.91133 33.8637H33.6821L33.7753 33.6214H27.4389ZM27.4389 33.6214L27.5321 33.0717H21.382L21.2795 33.6214H9.82746L9.91133 33.8637H33.6821L33.7753 33.6214H27.4389ZM27.4389 33.6214L27.5321 33.0717H21.382L21.2795 33.6214H9.82746L9.91133 33.8637H33.6821L33.7753 33.6214H27.4389Z" fill="#012E71"/>
<path d="M29.4609 33.6214L29.3678 33.8637H33.6821L33.7753 33.6214H29.4609ZM27.4389 33.6214L27.5321 33.0717H21.382L21.2795 33.6214H12.5577L12.567 33.8637H28.2962L28.3334 33.6214H27.4389ZM27.4389 33.6214L27.5321 33.0717H21.382L21.2795 33.6214H9.82746L9.91133 33.8637H33.6821L33.7753 33.6214H27.4389ZM27.4389 33.6214L27.5321 33.0717H21.382L21.2795 33.6214H9.82746L9.91133 33.8637H33.6821L33.7753 33.6214H27.4389ZM27.4389 33.6214L27.5321 33.0717H21.382L21.2795 33.6214H9.82746L9.91133 33.8637H33.6821L33.7753 33.6214H27.4389ZM27.4389 33.6214L27.5321 33.0717H21.382L21.2795 33.6214H9.82746L9.91133 33.8637H33.6821L33.7753 33.6214H27.4389ZM27.4389 33.6214L27.5321 33.0717H21.382L21.2795 33.6214H9.82746L9.91133 33.8637H33.6821L33.7753 33.6214H27.4389ZM35.9651 33.1276C35.9464 33.1089 35.9185 33.0903 35.8998 33.0717C35.816 33.0157 35.7321 32.9878 35.6389 32.9878H3.11835C3.02516 32.9878 2.9413 33.0157 2.85744 33.0717C2.8388 33.0903 2.81085 33.1089 2.79221 33.1276C2.70835 33.2207 2.67107 33.3419 2.68039 33.463L5.91381 73.4382C5.93245 73.6711 6.11881 73.8482 6.35177 73.8482H32.4055C32.6385 73.8482 32.8248 73.6711 32.8434 73.4382L36.0769 33.463C36.0862 33.3419 36.0489 33.2207 35.9651 33.1276ZM32.0048 72.9629H6.75245L3.59358 33.8637H35.1637L32.0048 72.9629ZM27.4389 33.6214L27.5321 33.0717H21.382L21.2795 33.6214H9.82746L9.91133 33.8637H33.6821L33.7753 33.6214H27.4389ZM27.4389 33.6214L27.5321 33.0717H21.382L21.2795 33.6214H9.82746L9.91133 33.8637H33.6821L33.7753 33.6214H27.4389ZM27.4389 33.6214L27.5321 33.0717H21.382L21.2795 33.6214H9.82746L9.91133 33.8637H33.6821L33.7753 33.6214H27.4389ZM27.4389 33.6214L27.5321 33.0717H21.382L21.2795 33.6214H9.82746L9.91133 33.8637H33.6821L33.7753 33.6214H27.4389ZM27.4389 33.6214L27.5321 33.0717H21.382L21.2795 33.6214H9.82746L9.91133 33.8637H33.6821L33.7753 33.6214H27.4389Z" stroke="#012E71" mask="url(#path-1-outside-1_1_1696)"/>
<path d="M10.0638 33.5395L10.0637 33.5396L10.1476 33.7818L10.2624 34.1136H9.91133H8.97951H8.80781L8.74617 33.9534L8.65299 33.7111L8.65073 33.7052L8.52232 33.3713H8.53198L8.45832 33.1644L8.42492 33.0892L8.42149 33.0815L8.4186 33.0736L4.63741 22.7414L2.19991 23.6321L5.59876 32.9016L5.60132 32.9086L5.60121 32.9087L5.62778 32.9883L5.83124 33.534L5.83331 33.5395L5.83324 33.5396L5.91711 33.7818L6.03195 34.1136H5.68086H4.74904H4.57734L4.5157 33.9534L4.42252 33.7111L4.4216 33.7087L4.42161 33.7087L4.21661 33.1589L4.21354 33.1507L4.21369 33.1506L4.18689 33.0702L0.665869 23.4573L0.650617 23.4157V23.4092C0.643067 23.3836 0.637062 23.3518 0.637467 23.3155C0.631445 23.281 0.63181 23.2542 0.631951 23.2438C0.631968 23.2426 0.631981 23.2416 0.631981 23.2409V23.2315C0.631981 23.1405 0.642591 23.0325 0.693529 22.9283C0.76906 22.7653 0.913154 22.6366 1.07574 22.5774C1.07586 22.5774 1.07598 22.5773 1.07609 22.5773L1.63456 22.3725L1.63458 22.3725L4.25297 21.4127L4.253 21.4127L4.8117 21.2079C4.81177 21.2078 4.81183 21.2078 4.81189 21.2078L4.81207 21.2077L4.89813 21.4424C5.07518 21.3772 5.28018 21.4331 5.392 21.5822L10.0638 33.5395ZM10.0638 33.5395L10.0627 33.5368L10.0055 33.3713H10.0011L9.85824 32.9883L9.83168 32.9087L9.83179 32.9086L9.8292 32.9016L5.70836 21.6739C5.69109 21.5906 5.65741 21.5115 5.59653 21.4354L5.58788 21.4245L5.57984 21.4165L10.0638 33.5395Z" fill="#012E71" stroke="#012E71" stroke-width="0.5"/>
<path d="M5.59653 21.4353L5.58788 21.4245L5.58099 21.4176L3.54166 18.7202L3.54141 18.7198L1.49165 15.9992L1.49165 15.9992L1.49057 15.9978C1.30309 15.7527 0.983475 15.6634 0.704292 15.7653C0.408541 15.8698 0.23598 16.1516 0.250213 16.4504L0.250206 16.4504L0.250304 16.4522L0.436311 19.8468C0.436444 19.8573 0.437184 19.8774 0.44086 19.8994C0.442096 19.9068 0.444242 19.9185 0.44833 19.9328L0.631977 23.2385V23.2408C0.631977 23.2416 0.631963 23.2426 0.631947 23.2438C0.631806 23.2542 0.63144 23.281 0.637463 23.3155C0.637058 23.3518 0.643063 23.3836 0.650613 23.4092V23.4244L0.67216 23.4728C0.71848 23.5771 0.801657 23.7158 0.950323 23.8008C1.05586 23.8657 1.1831 23.9102 1.31993 23.9102C1.39338 23.9102 1.47946 23.8965 1.55765 23.866L1.96446 23.7181L1.96482 23.7179L4.87174 22.6558L4.87211 22.6557L5.28175 22.5067L5.28188 22.5071L5.29479 22.5015C5.47912 22.4225 5.64252 22.2701 5.70539 22.0568C5.74523 21.9341 5.74983 21.8018 5.70885 21.6763C5.69174 21.5921 5.658 21.5122 5.59653 21.4353ZM1.78388 19.1832L1.75433 18.6402L2.0793 19.076L2.07929 19.076L2.08062 19.0777L2.63936 19.8134L2.63971 19.8139L3.93604 21.5289L1.9513 22.2564L1.83052 20.1066L1.83045 20.1052L1.78393 19.1841L1.78394 19.1841L1.78388 19.1832Z" fill="#012E71" stroke="#012E71" stroke-width="0.5"/>
<path d="M3.54199 18.7206L3.54166 18.7202L1.49165 15.9992L1.49165 15.9992L1.49057 15.9978C1.30309 15.7527 0.983475 15.6634 0.704291 15.7653C0.40854 15.8698 0.23598 16.1516 0.250213 16.4504L0.250206 16.4504L0.250304 16.4522L0.436311 19.8468C0.436444 19.8573 0.437184 19.8774 0.44086 19.8994C0.442437 19.9089 0.445493 19.9252 0.452174 19.9452C0.481586 20.1287 0.594477 20.2978 0.747758 20.3954L0.749476 20.3965C0.856017 20.4631 0.985174 20.509 1.12425 20.509C1.21307 20.509 1.28675 20.4932 1.36172 20.4682L1.36177 20.4684L1.37044 20.4651L1.66739 20.3538L2.9241 19.8977L2.92424 19.8976L3.23174 19.7858L3.23187 19.7862L3.24478 19.7806C3.43063 19.701 3.5952 19.5467 3.65691 19.3306L3.65695 19.3307L3.65809 19.3264C3.71504 19.1128 3.67202 18.894 3.54199 18.7206ZM1.76559 18.847L1.75433 18.6402L1.8781 18.8062L1.76559 18.847Z" fill="#012E71" stroke="#012E71" stroke-width="0.5"/>
<path d="M16.8423 33.6117L16.8238 33.0673V32.9877H16.8239L16.8237 32.9804L16.4883 21.4558L16.4883 21.4538L16.4697 20.5705L16.4696 20.5679L16.3859 17.9069V17.8828H16.3859L16.3859 17.8791L16.3765 17.2641L16.3766 17.2641L16.3764 17.2599L16.3485 16.3846L16.3485 16.384L16.2833 14.1576L16.2833 14.1572C16.2419 12.8032 15.1452 11.7251 13.7877 11.7251H13.7225V11.7248L13.7111 11.7254L13.3028 11.7439C12.6431 11.765 12.0222 12.0339 11.5571 12.5197L11.5571 12.5197L11.5551 12.5219C11.1097 12.9984 10.8722 13.629 10.882 14.2786V14.3047H10.8819L10.8821 14.3115L10.9845 18.0258V18.0258V18.0259V18.0259V18.026V18.026V18.026V18.0261V18.0261V18.0262V18.0262V18.0263V18.0263V18.0263V18.0264V18.0264V18.0265V18.0265V18.0265V18.0266V18.0266V18.0267V18.0267V18.0267V18.0268V18.0268V18.0268V18.0269V18.0269V18.027V18.027V18.027V18.0271V18.0271V18.0271V18.0272V18.0272V18.0273V18.0273V18.0273V18.0274V18.0274V18.0274V18.0275V18.0275V18.0276V18.0276V18.0276V18.0277V18.0277V18.0277V18.0278V18.0278V18.0278V18.0279V18.0279V18.0279V18.028V18.028V18.028V18.0281V18.0281V18.0282V18.0282V18.0282V18.0283V18.0283V18.0283V18.0284V18.0284V18.0284V18.0285V18.0285V18.0285V18.0286V18.0286V18.0286V18.0287V18.0287V18.0287V18.0287V18.0288V18.0288V18.0288V18.0289V18.0289V18.0289V18.029V18.029V18.029V18.0291V18.0291V18.0291V18.0292V18.0292V18.0292V18.0293V18.0293V18.0293V18.0293V18.0294V18.0294V18.0294V18.0295V18.0295V18.0295V18.0296V18.0296V18.0296V18.0297V18.0297V18.0297V18.0297V18.0298V18.0298V18.0298V18.0299V18.0299V18.0299V18.0299V18.03V18.03V18.03V18.0301V18.0301V18.0301V18.0302V18.0302V18.0302V18.0302V18.0303V18.0303V18.0303V18.0304V18.0304V18.0304V18.0304V18.0305V18.0305V18.0305V18.0306V18.0306V18.0306V18.0306V18.0307V18.0307V18.0307V18.0308V18.0308V18.0308V18.0308V18.0309V18.0309V18.0309V18.0309V18.031V18.031V18.031V18.0311V18.0311V18.0311V18.0311V18.0312V18.0312V18.0312V18.0313V18.0313V18.0313V18.0313V18.0314V18.0314V18.0314V18.0314V18.0315V18.0315V18.0315V18.0316V18.0316V18.0316V18.0316V18.0317V18.0317V18.0317V18.0317V18.0318V18.0318V18.0318V18.0319V18.0319V18.0319V18.0319V18.032V18.032V18.032V18.032V18.0321V18.0321V18.0321V18.0322V18.0322V18.0322V18.0322V18.0323V18.0323V18.0323V18.0323V18.0324V18.0324V18.0324V18.0325V18.0325V18.0325V18.0325V18.0326V18.0326V18.0326V18.0326V18.0327V18.0327V18.0327V18.0328V18.0328V18.0328V18.0328V18.0329V18.0329V18.0329V18.033V18.033V18.033V18.033V18.0331V18.0331V18.0331V18.0331V18.0332V18.0332V18.0332V18.0333V18.0333V18.0333V18.0333V18.0334V18.0334V18.0334V18.0335V18.0335V18.0335V18.0335V18.0336V18.0336V18.0336V18.0337V18.0337V18.0337V18.0337V18.0338V18.0338V18.0338V18.0339V18.0339V18.0339V18.034V18.034V18.034V18.034V18.0341V18.0341V18.0341V18.0342V18.0342V18.0342V18.0343V18.0343V18.0343V18.0343V18.0344V18.0344V18.0344V18.0345V18.0345V18.0345V18.0346V18.0346V18.0346V18.0346V18.0347V18.0347V18.0347V18.0348V18.0348V18.0348V18.0349V18.0349V18.0349V18.035V18.035V18.035V18.0351V18.0351V18.0351V18.0352V18.0352V18.0352V18.0353V18.0353V18.0353V18.0354V18.0354V18.0354V18.0355V18.0355V18.0355V18.0356V18.0356V18.0356V18.0357V18.0357V18.0357V18.0358V18.0358V18.0358V18.0359V18.0359V18.0359V18.036V18.036V18.036V18.0361V18.0361V18.0361V18.0362V18.0362V18.0362V18.0363V18.0363V18.0364V18.0364V18.0364V18.0365V18.0365V18.0365V18.0366V18.0366V18.0366V18.0367V18.0367V18.0368V18.0368V18.0368V18.0369V18.0369V18.0369V18.037V18.037V18.0371V18.0371V18.0371V18.0372V18.0372V18.0373V18.0373V18.0373V18.0374V18.0374V18.0375V18.0375V18.0375V18.0376V18.0376V18.0377V18.0377V18.0377V18.0378V18.0378V18.0379V18.0379V18.0379V18.038V18.038V18.0381V18.0381V18.0382V18.0382V18.0382V18.0383V18.0383V18.0384V18.0384V18.0385V18.0385V18.0386V18.0386V18.0386V18.0387V18.0387V18.0388V18.0388V18.0389V18.0389V18.039V18.039V18.039V18.0391V18.0391V18.0392V18.0392V18.0393V18.0393V18.0394V18.0394V18.0395V18.0395V18.0396V18.0396V18.0397V18.0397V18.0398V18.0398V18.0399V18.0399V18.04V18.04V18.0401V18.0401V18.0402V18.0402V18.0403V18.0403V18.0404V18.0404V18.0405V18.0405V18.0406V18.0406V18.0407V18.0407V18.0408V18.0408V18.0409V18.0409V18.041V18.041V18.0411V18.0411V18.0412V18.0413H10.9844L10.9846 18.0484L11.4131 32.9913V33.0715H11.413L11.4133 33.08L11.4319 33.6298L11.432 33.6309L11.4413 33.8732L11.4505 34.1136H11.6911H12.567H12.8268L12.8168 33.854L12.8075 33.6128L12.8075 33.6117L12.7891 33.0673V32.9877H12.7892L12.789 32.9806L12.379 18.4349L12.3789 18.434L12.351 17.5493L12.351 17.5488L12.2672 14.7176L12.2579 14.2834C12.2581 14.1454 12.2746 14.0251 12.3103 13.9178L12.3105 13.9179L12.3135 13.9074C12.3586 13.7495 12.4412 13.5991 12.5617 13.4707C12.7695 13.2557 13.0521 13.1273 13.3462 13.1196C13.3464 13.1196 13.3466 13.1196 13.3468 13.1196L13.7902 13.1103C14.2705 13.1113 14.6776 13.408 14.8284 13.8376L14.8312 13.8456L14.8345 13.8534C14.8751 13.9481 14.8992 14.0651 14.9076 14.203L14.9168 14.6361H14.9168L14.9169 14.6382L14.982 16.8243V16.8485H14.9819L14.9821 16.856L15.0008 17.4803L15.0008 17.4808L15.0287 18.3557L15.0287 18.3567L15.1033 21.0486L15.1033 21.0487L15.4387 32.9947L15.439 33.005L15.4401 33.0153L15.4482 33.0875L15.4573 33.6255L15.4572 33.6255L15.4574 33.6309L15.4668 33.8732L15.476 34.1136H15.7166H16.6018H16.8616L16.8516 33.854L16.8423 33.6128L16.8423 33.6117Z" fill="#012E71" stroke="#012E71" stroke-width="0.5"/>
<path d="M16.3486 16.3858L16.3485 16.3847L16.2833 14.1576L16.2833 14.1576L16.2832 14.155C16.2688 13.7938 15.9684 13.4863 15.5954 13.4863H15.5954H15.5953H15.5953H15.5952H15.5952H15.5951H15.5951H15.595H15.595H15.5949H15.5949H15.5948H15.5948H15.5947H15.5946H15.5946H15.5945H15.5945H15.5944H15.5944H15.5943H15.5943H15.5942H15.5942H15.5941H15.5941H15.594H15.594H15.5939H15.5939H15.5939H15.5938H15.5938H15.5937H15.5937H15.5936H15.5936H15.5935H15.5935H15.5934H15.5934H15.5933H15.5933H15.5932H15.5932H15.5932H15.5931H15.5931H15.593H15.593H15.5929H15.5929H15.5928H15.5928H15.5928H15.5927H15.5927H15.5926H15.5926H15.5925H15.5925H15.5925H15.5924H15.5924H15.5923H15.5923H15.5922H15.5922H15.5922H15.5921H15.5921H15.592H15.592H15.592H15.5919H15.5919H15.5918H15.5918H15.5918H15.5917H15.5917H15.5916H15.5916H15.5916H15.5915H15.5915H15.5915H15.5914H15.5914H15.5913H15.5913H15.5913H15.5912H15.5912H15.5912H15.5911H15.5911H15.5911H15.591H15.591H15.5909H15.5909H15.5909H15.5908H15.5908H15.5908H15.5907H15.5907H15.5907H15.5906H15.5906H15.5906H15.5905H15.5905H15.5905H15.5904H15.5904H15.5904H15.5903H15.5903H15.5903H15.5902H15.5902H15.5902H15.5901H15.5901H15.5901H15.5901H15.59H15.59H15.59H15.5899H15.5899H15.5899H15.5898H15.5898H15.5898H15.5898H15.5897H15.5897H15.5897H15.5896H15.5896H15.5896H15.5896H15.5895H15.5895H15.5895H15.5894H15.5894H15.5894H15.5894H15.5893H15.5893H15.5893H15.5893H15.5892H15.5892H15.5892H15.5892H15.5891H15.5891H15.5891H15.5891H15.589H15.589H15.589H15.589H15.5889H15.5889H15.5889H15.5889H15.5888H15.5888H15.5888H15.5888H15.5887H15.5887H15.5887H15.5887H15.5886H15.5886H15.5886H15.5886H15.5886H15.5885H15.5885H15.5885H15.5885H15.5884H15.5884H15.5884H15.5884H15.5884H15.5883H15.5883H15.5883H15.5883H15.5883H15.5882H15.5882H15.5882H15.5882H15.5882H15.5881H15.5881H15.5881H15.5881H15.5881H15.588H15.588H15.588H15.588H15.588H15.5879H15.5879H15.5879H15.5879H15.5879H15.5879H15.5878H15.5878H15.5878H15.5878H15.5878H15.5877H15.5877H15.5877H15.5877H15.5877H15.5877H15.5876H15.5876H15.5876H15.5876H15.5876H15.5876H15.5876H15.5875H15.5875H15.5875H15.5875H15.5875H15.5875H15.5874H15.5874H15.5874H15.5874H15.5874H15.5874H15.5874H15.5873H15.5873H15.5873H15.5873H15.5873H15.5873H15.5873H15.5873H15.5872H15.5872H15.5872H15.5872H15.5872H15.5872H15.5872H15.5871H15.5871H15.5871H15.5871H15.5871H15.5871H15.5871H15.5871H15.587H15.587H15.587H15.587H15.587H15.587H15.587H15.587H15.587H15.5869H15.5869H15.5869H15.5869H15.5869H15.5869H15.5869H15.5869H15.5869H15.5869H15.5868H15.5868H15.5868H15.5868H15.5868H15.5868H15.5868H15.5868H15.5868H15.5868H15.5868H15.5867H15.5867H15.5867H15.5867H15.5867H15.5867H15.5867H15.5867H15.5867H15.5867H15.5867H15.5866H15.5866H15.5866H15.5866H15.5866H15.5866H15.5866H15.5866H15.5866H15.5866H15.5866H15.5866H15.5866H15.5866H15.5865H15.5865H15.5865H15.5865H15.5865H15.5865H15.5865H15.5865H15.5865H15.5865H15.5865H15.5865H15.5865H15.5865H15.5865H15.5864H15.5864H15.5864H15.5864H15.5864H15.5864H15.5864H15.5864H15.5864H15.5864H15.5864H15.5864H15.5864H15.5864H15.5864H15.5864H15.5864H15.5864H15.5864H15.5864H15.5863H15.5863H15.5863H15.5863H15.5863H15.5863H15.5863H15.5863H15.5863H15.5863H15.5863H15.5863H15.5863H15.5863H15.5863H15.5863H15.5863H15.5863H15.5863H15.5863H15.5863H15.5862H15.5862H15.5862H15.5862H15.5862H15.5862H15.5862H15.5862H15.5862H15.5862H15.5862H15.5862H15.5862H15.5862H15.5862H15.5862H15.5862H15.5862H15.5862H15.5862H15.5862H15.5861H15.5861H15.5861H15.5861H15.5861H15.5861L15.5861 13.7363V13.4862L15.5772 13.4865L15.0573 13.5051L15.0563 13.5051L12.0662 13.5889L12.0662 13.5889L12.0642 13.589L11.5463 13.6075C11.3676 13.6088 11.1949 13.6833 11.0671 13.8111L11.0561 13.8221L11.0465 13.8344C10.9598 13.946 10.882 14.1011 10.882 14.2768V14.3047H10.8819L10.8821 14.3116L10.9845 18.0259V18.0259V18.026V18.026V18.0261V18.0261V18.0261V18.0262V18.0262V18.0263V18.0263V18.0263V18.0264V18.0264V18.0265V18.0265V18.0265V18.0266V18.0266V18.0267V18.0267V18.0267V18.0268V18.0268V18.0269V18.0269V18.0269V18.027V18.027V18.027V18.0271V18.0271V18.0272V18.0272V18.0272V18.0273V18.0273V18.0274V18.0274V18.0274V18.0275V18.0275V18.0275V18.0276V18.0276V18.0276V18.0277V18.0277V18.0278V18.0278V18.0278V18.0279V18.0279V18.0279V18.028V18.028V18.028V18.0281V18.0281V18.0281V18.0282V18.0282V18.0282V18.0283V18.0283V18.0283V18.0284V18.0284V18.0284V18.0285V18.0285V18.0285V18.0286V18.0286V18.0286V18.0287V18.0287V18.0287V18.0288V18.0288V18.0288V18.0289V18.0289V18.0289V18.029V18.029V18.029V18.0291V18.0291V18.0291V18.0292V18.0292V18.0292V18.0292V18.0293V18.0293V18.0293V18.0294V18.0294V18.0294V18.0295V18.0295V18.0295V18.0296V18.0296V18.0296V18.0296V18.0297V18.0297V18.0297V18.0298V18.0298V18.0298V18.0299V18.0299V18.0299V18.0299V18.03V18.03V18.03V18.0301V18.0301V18.0301V18.0302V18.0302V18.0302V18.0302V18.0303V18.0303V18.0303V18.0304V18.0304V18.0304V18.0304V18.0305V18.0305V18.0305V18.0306V18.0306V18.0306V18.0306V18.0307V18.0307V18.0307V18.0308V18.0308V18.0308V18.0308V18.0309V18.0309V18.0309V18.031V18.031V18.031V18.031V18.0311V18.0311V18.0311V18.0311V18.0312V18.0312V18.0312V18.0313V18.0313V18.0313V18.0313V18.0314V18.0314V18.0314V18.0314V18.0315V18.0315V18.0315V18.0316V18.0316V18.0316V18.0316V18.0317V18.0317V18.0317V18.0318V18.0318V18.0318V18.0318V18.0319V18.0319V18.0319V18.0319V18.032V18.032V18.032V18.0321V18.0321V18.0321V18.0321V18.0322V18.0322V18.0322V18.0322V18.0323V18.0323V18.0323V18.0324V18.0324V18.0324V18.0324V18.0325V18.0325V18.0325V18.0325V18.0326V18.0326V18.0326V18.0327V18.0327V18.0327V18.0327V18.0328V18.0328V18.0328V18.0328V18.0329V18.0329V18.0329V18.033V18.033V18.033V18.033V18.0331V18.0331V18.0331V18.0332V18.0332V18.0332V18.0332V18.0333V18.0333V18.0333V18.0334V18.0334V18.0334V18.0334V18.0335V18.0335V18.0335V18.0335V18.0336V18.0336V18.0336V18.0337V18.0337V18.0337V18.0338V18.0338V18.0338V18.0338V18.0339V18.0339V18.0339V18.034V18.034V18.034V18.034V18.0341V18.0341V18.0341V18.0342V18.0342V18.0342V18.0342V18.0343V18.0343V18.0343V18.0344V18.0344V18.0344V18.0345V18.0345V18.0345V18.0346V18.0346V18.0346V18.0346V18.0347V18.0347V18.0347V18.0348V18.0348V18.0348V18.0349V18.0349V18.0349V18.035V18.035V18.035V18.0351V18.0351V18.0351V18.0351V18.0352V18.0352V18.0352V18.0353V18.0353V18.0353V18.0354V18.0354V18.0354V18.0355V18.0355V18.0355V18.0356V18.0356V18.0356V18.0357V18.0357V18.0357V18.0358V18.0358V18.0358V18.0359V18.0359V18.0359V18.036V18.036V18.0361V18.0361V18.0361V18.0362V18.0362V18.0362V18.0363V18.0363V18.0363V18.0364V18.0364V18.0364V18.0365V18.0365V18.0366V18.0366V18.0366V18.0367V18.0367V18.0367V18.0368V18.0368V18.0368V18.0369V18.0369V18.037V18.037V18.037V18.0371V18.0371V18.0372V18.0372V18.0372V18.0373V18.0373V18.0373V18.0374V18.0374V18.0375V18.0375V18.0375V18.0376V18.0376V18.0377V18.0377V18.0377V18.0378V18.0378V18.0379V18.0379V18.038V18.038V18.038V18.0381V18.0381V18.0382V18.0382V18.0382V18.0383V18.0383V18.0384V18.0384V18.0385V18.0385V18.0386V18.0386V18.0386V18.0387V18.0387V18.0388V18.0388V18.0389V18.0389V18.039V18.039V18.039V18.0391V18.0391V18.0392V18.0392V18.0393V18.0393V18.0394V18.0394V18.0395V18.0395V18.0396V18.0396V18.0397V18.0397V18.0397V18.0398V18.0398V18.0399V18.0399V18.04V18.04V18.0401V18.0401V18.0402V18.0402V18.0403V18.0403V18.0404V18.0404V18.0405V18.0405V18.0406V18.0407V18.0407V18.0408V18.0408V18.0409V18.0409V18.041V18.041V18.0411V18.0411V18.0412V18.0412V18.0413V18.0413V18.0513L10.9853 18.0613C11.0143 18.4234 11.3177 18.7013 11.6725 18.7013H11.6725H11.6726H11.6726H11.6727H11.6727H11.6728H11.6729H11.6729H11.673H11.673H11.6731H11.6731H11.6732H11.6732H11.6733H11.6733H11.6734H11.6734H11.6735H11.6735H11.6736H11.6736H11.6737H11.6737H11.6738H11.6738H11.6739H11.6739H11.674H11.674H11.6741H11.6741H11.6742H11.6742H11.6743H11.6743H11.6744H11.6744H11.6744H11.6745H11.6745H11.6746H11.6746H11.6747H11.6747H11.6748H11.6748H11.6749H11.6749H11.6749H11.675H11.675H11.6751H11.6751H11.6752H11.6752H11.6753H11.6753H11.6753H11.6754H11.6754H11.6755H11.6755H11.6756H11.6756H11.6756H11.6757H11.6757H11.6758H11.6758H11.6758H11.6759H11.6759H11.676H11.676H11.676H11.6761H11.6761H11.6762H11.6762H11.6762H11.6763H11.6763H11.6764H11.6764H11.6764H11.6765H11.6765H11.6765H11.6766H11.6766H11.6766H11.6767H11.6767H11.6768H11.6768H11.6768H11.6769H11.6769H11.6769H11.677H11.677H11.677H11.6771H11.6771H11.6771H11.6772H11.6772H11.6772H11.6773H11.6773H11.6774H11.6774H11.6774H11.6774H11.6775H11.6775H11.6775H11.6776H11.6776H11.6776H11.6777H11.6777H11.6777H11.6778H11.6778H11.6778H11.6779H11.6779H11.6779H11.678H11.678H11.678H11.678H11.6781H11.6781H11.6781H11.6782H11.6782H11.6782H11.6782H11.6783H11.6783H11.6783H11.6784H11.6784H11.6784H11.6784H11.6785H11.6785H11.6785H11.6786H11.6786H11.6786H11.6786H11.6787H11.6787H11.6787H11.6787H11.6788H11.6788H11.6788H11.6788H11.6789H11.6789H11.6789H11.6789H11.679H11.679H11.679H11.679H11.6791H11.6791H11.6791H11.6791H11.6792H11.6792H11.6792H11.6792H11.6793H11.6793H11.6793H11.6793H11.6793H11.6794H11.6794H11.6794H11.6794H11.6795H11.6795H11.6795H11.6795H11.6795H11.6796H11.6796H11.6796H11.6796H11.6796H11.6797H11.6797H11.6797H11.6797H11.6797H11.6798H11.6798H11.6798H11.6798H11.6798H11.6799H11.6799H11.6799H11.6799H11.6799H11.68H11.68H11.68H11.68H11.68H11.68H11.6801H11.6801H11.6801H11.6801H11.6801H11.6802H11.6802H11.6802H11.6802H11.6802H11.6802H11.6803H11.6803H11.6803H11.6803H11.6803H11.6803H11.6803H11.6804H11.6804H11.6804H11.6804H11.6804H11.6804H11.6805H11.6805H11.6805H11.6805H11.6805H11.6805H11.6805H11.6806H11.6806H11.6806H11.6806H11.6806H11.6806H11.6806H11.6807H11.6807H11.6807H11.6807H11.6807H11.6807H11.6807H11.6807H11.6808H11.6808H11.6808H11.6808H11.6808H11.6808H11.6808H11.6808H11.6809H11.6809H11.6809H11.6809H11.6809H11.6809H11.6809H11.6809H11.6809H11.681H11.681H11.681H11.681H11.681H11.681H11.681H11.681H11.681H11.6811H11.6811H11.6811H11.6811H11.6811H11.6811H11.6811H11.6811H11.6811H11.6811H11.6812H11.6812H11.6812H11.6812H11.6812H11.6812H11.6812H11.6812H11.6812H11.6812H11.6812H11.6812H11.6813H11.6813H11.6813H11.6813H11.6813H11.6813H11.6813H11.6813H11.6813H11.6813H11.6813H11.6813H11.6813H11.6814H11.6814H11.6814H11.6814H11.6814H11.6814H11.6814H11.6814H11.6814H11.6814H11.6814H11.6814H11.6814H11.6814H11.6814H11.6815H11.6815H11.6815H11.6815H11.6815H11.6815H11.6815H11.6815H11.6815H11.6815H11.6815H11.6815H11.6815H11.6815H11.6815H11.6815H11.6815H11.6815H11.6815H11.6816H11.6816H11.6816H11.6816H11.6816H11.6816H11.6816H11.6816H11.6816H11.6816H11.6816H11.6816H11.6816H11.6816H11.6816H11.6816H11.6816H11.6816H11.6816H11.6816H11.6816H11.6816H11.6817H11.6817H11.6817H11.6817H11.6817H11.6817H11.6817H11.6817H11.6817H11.6817H11.6817H11.6817H11.6817H11.6817H11.6817H11.6817H11.6817H11.6817H11.6817H11.6817H11.6818H11.6818H11.6818H11.6818H11.6818H11.6818H11.6818H11.6818H11.6818H11.6818H11.6818L11.6818 18.4513V18.7014L11.687 18.7013L12.1343 18.692L12.1343 18.692L12.1365 18.6919L15.285 18.5988L15.7196 18.5895C15.9115 18.5885 16.0825 18.4949 16.2009 18.3765L16.2067 18.3706L16.2122 18.3644C16.3112 18.2512 16.3859 18.0919 16.3859 17.9109V17.8829H16.386L16.3858 17.8767L16.3486 16.3858ZM14.982 16.8486H14.9819L14.9821 16.8561L14.9933 17.2297L12.3436 17.3002L12.2745 14.9666L14.9244 14.8882L14.982 16.8244V16.8486Z" fill="#012E71" stroke="#012E71" stroke-width="0.5"/>
<path d="M38.7751 16.6561L38.7753 16.6557L38.7626 16.6511L38.3814 16.5116C38.2888 16.477 38.1944 16.4534 38.0893 16.4417L38.0755 16.4402H38.0617H38.0151C37.5999 16.4402 37.1791 16.7128 36.8012 17.0578C36.4115 17.4134 36.0161 17.894 35.6482 18.4041C34.963 19.3538 34.3509 20.4366 34.0211 21.09H34.0121L33.943 21.2282C33.8577 21.3989 33.7984 21.5359 33.7663 21.621C33.6196 21.9803 33.8142 22.3845 34.1627 22.5152L34.1641 22.5157L34.34 22.5805L37.7493 23.8753L37.7493 23.8753L37.7516 23.8762L37.9171 23.9371C38.0049 23.9786 38.0862 23.9941 38.1735 23.9941C38.2866 23.9941 38.3793 23.9617 38.4548 23.9248C38.621 23.8532 38.7572 23.7209 38.8194 23.5378C38.8567 23.4354 38.9063 23.2964 38.9465 23.1272C39.1464 22.4305 39.3806 21.2464 39.5119 20.1681L39.5119 20.168C39.6436 19.0813 39.6395 18.3361 39.5496 17.8202C39.4601 17.3067 39.2803 16.9937 39.0372 16.8111C38.9456 16.7345 38.8473 16.687 38.7751 16.6561ZM37.7195 22.3852L35.356 21.4855C35.627 20.9765 36.0433 20.273 36.5074 19.5887L36.5075 19.5886C37.0697 18.7591 37.4655 18.3119 37.722 18.0728C37.868 17.9366 37.9652 17.8714 38.0186 17.8414C38.0201 17.8423 38.0215 17.843 38.0227 17.8437C38.037 17.8519 38.0519 17.8594 38.0601 17.8635L38.0617 17.8642L38.1145 17.8906H38.1361C38.1374 17.891 38.1387 17.8913 38.14 17.8916C38.1421 17.8921 38.1442 17.8926 38.1464 17.893L38.1479 17.8936C38.1502 17.9004 38.1526 17.9078 38.1551 17.9159C38.1753 17.9812 38.2002 18.0908 38.217 18.2645C38.2507 18.6132 38.2503 19.2078 38.1213 20.1983C38.0112 21.0164 37.8541 21.8204 37.7195 22.3852Z" fill="#012E71" stroke="#012E71" stroke-width="0.5"/>
<path d="M31.2835 30.6297L31.2835 30.6296L31.2767 30.6272L31.0995 30.5652C30.9196 30.4881 30.7285 30.513 30.5761 30.5765L30.5761 30.5764L30.5689 30.5797C30.4024 30.6553 30.279 30.7982 30.2118 30.9461L30.2087 30.9529L30.206 30.9598L30.0662 31.3232L30.0662 31.3232L30.0658 31.3244L29.4719 32.8926L29.4375 32.9701L29.4344 32.9771L29.4317 32.9843L29.2271 33.5328L29.1344 33.7739L29.0037 34.1137H29.3678H30.3182H30.4899L30.5515 33.9534L30.6447 33.7111L30.6447 33.7111L30.6452 33.7099L30.7754 33.3714H30.7714L30.848 33.1661L30.8821 33.0893L30.8851 33.0827L30.8876 33.0759L31.2558 32.0991L33.7336 33.04L33.5423 33.5306L33.5419 33.5316L33.4487 33.7739L33.3181 34.1137H33.6821H34.6325H34.8042L34.8659 33.9534L34.9591 33.7111L34.9591 33.7112L34.9609 33.7061L35.1256 33.2487L35.1592 33.1731L35.1641 33.1621L35.1679 33.1507L35.1935 33.0738L35.2653 32.8942L35.2655 32.8943L35.2684 32.8861C35.3967 32.5299 35.2265 32.1324 34.8596 31.9987L31.2835 30.6297Z" fill="#012E71" stroke="#012E71" stroke-width="0.5"/>
<path d="M38.0857 17.8746L38.0856 17.8748L38.0944 17.8777C38.1694 17.9027 38.2431 17.9185 38.3319 17.9185C38.6102 17.9185 38.8716 17.7451 38.9749 17.4796L38.9749 17.4796L38.9758 17.4772L39.5056 16.0737C39.6518 15.7158 39.4593 15.3134 39.1134 15.181C38.7541 15.0341 38.3499 15.2285 38.219 15.577C38.219 15.5771 38.219 15.5772 38.2189 15.5773L37.6893 16.9803C37.5425 17.3397 37.7371 17.7439 38.0857 17.8746Z" fill="#012E71" stroke="#012E71" stroke-width="0.5"/>
<path d="M38.6577 22.7477L38.6577 22.7477L38.6554 22.7468L37.9845 22.4859L37.9845 22.4859L37.9828 22.4853L35.0942 21.3857L35.0942 21.3857L35.093 21.3853L34.4221 21.1337L34.4222 21.1336L34.4134 21.1306C34.3384 21.1056 34.2648 21.0898 34.1759 21.0898H34.1666C33.8891 21.0898 33.6349 21.2535 33.5318 21.5317C33.5317 21.5321 33.5315 21.5325 33.5314 21.533L29.9832 30.8735C29.9085 31.0563 29.9265 31.2484 29.9974 31.4045L29.9973 31.4045L30.0014 31.4128C30.0304 31.4708 30.0704 31.524 30.0954 31.5573C30.0969 31.5592 30.0982 31.5611 30.0996 31.5628L30.0993 31.563L30.1075 31.5729C30.1844 31.6651 30.2753 31.7237 30.3688 31.7638L30.3687 31.764L30.3791 31.7679L31.0215 32.01L31.0221 32.0102L33.9661 33.1281L33.9661 33.1281L33.968 33.1289L34.2186 33.2217L34.2196 33.222L34.4408 33.305L34.6049 33.3688C34.6054 33.369 34.6058 33.3692 34.6063 33.3694C34.6874 33.4016 34.7753 33.4147 34.8562 33.4147L34.8569 33.4147C34.8623 33.4147 34.8875 33.4148 34.9159 33.4101C34.9231 33.4089 34.9344 33.4068 34.9482 33.4029C35.0637 33.3928 35.1795 33.3503 35.2764 33.2718C35.3077 33.2504 35.3676 33.2058 35.4126 33.1365C35.4584 33.0819 35.4876 33.0203 35.5042 32.9626L39.0501 23.6371L39.0503 23.6372L39.0536 23.6273C39.108 23.4639 39.1099 23.2802 39.0379 23.1073L39.0346 23.0994L39.0307 23.0917C38.9892 23.0087 38.9444 22.9499 38.8814 22.8869L38.7046 23.0637L38.8814 22.8869C38.8072 22.8128 38.7124 22.7696 38.6577 22.7477ZM37.5153 23.7863L34.4506 31.8357L31.5165 30.7183L34.5725 22.6687L37.5153 23.7863Z" fill="#012E71" stroke="#012E71" stroke-width="0.5"/>
<path d="M25.8603 1.49238L25.8604 1.49241C26.8064 0.829245 27.9188 0.478027 29.0789 0.478027C30.8916 0.478027 32.5959 1.36365 33.649 2.83272C33.7683 2.98536 33.8078 3.17623 33.7801 3.35651L33.7794 3.36075L33.7794 3.36074L28.6929 33.0227L28.6844 33.0992L28.6834 33.1083L28.6817 33.1174L28.5799 33.6632L28.5432 33.9016L28.5106 34.1136H28.2962H27.4016H27.1102L27.1545 33.8256L27.1918 33.5833L27.1924 33.5795L27.1924 33.5795L27.2856 33.0298L27.2877 33.0172L27.288 33.0173L27.3053 32.9394L32.364 3.42271C31.5715 2.43789 30.3636 1.86326 29.0789 1.86326C28.2954 1.86326 27.5381 2.07248 26.8745 2.48226L25.7751 8.89575L25.775 8.8959L25.626 9.76224L25.6259 9.76249L24.3401 17.282L24.34 17.2823L24.1909 18.1489L22.8957 25.678L22.6493 25.6356L22.8957 25.678L22.7467 26.5443L22.7466 26.5446L21.639 33.0226L21.6305 33.0992L21.6295 33.1083L21.6278 33.1174L21.526 33.6633L21.4894 33.9016L21.4885 33.9071L21.4885 33.907L21.4607 34.0644L21.4605 34.0655L21.3116 34.931L21.2693 35.1769L21.0233 35.1351L20.5853 35.0605L20.5825 35.06C20.2622 35.0018 20.0139 34.7148 20.0139 34.3854L20.0138 34.3825C20.0138 34.3645 20.0136 34.3135 20.029 34.2553L20.1011 33.8225L20.1021 33.8164L20.1022 33.8164L20.1483 33.5768L20.2398 33.0368L20.2483 32.9601L20.2492 32.9527L20.2504 32.9454L21.4499 25.9625C21.4518 25.9358 21.4561 25.9148 21.458 25.9054L21.4582 25.9044V25.8845L21.4618 25.8635L22.8849 17.5762C22.8868 17.5494 22.8911 17.5284 22.893 17.519L22.8934 17.517L25.8603 1.49238ZM25.8603 1.49238L25.8568 1.49494C25.7151 1.59799 25.5932 1.7536 25.5615 1.95503L24.3435 9.08624C24.3318 9.13002 24.329 9.16982 24.3283 9.19463L22.9101 17.4352C22.9067 17.4445 22.9026 17.457 22.8994 17.4719C22.8966 17.4845 22.8942 17.4996 22.8935 17.5166L25.8603 1.49238ZM22.9242 17.403L22.9232 17.4052C22.9242 17.403 22.9251 17.4013 22.9242 17.403Z" fill="#012E71" stroke="#012E71" stroke-width="0.5"/>
<path d="M29.723 2.39286L29.7147 2.39125L29.7063 2.3902C29.7039 2.3899 29.7014 2.38959 29.699 2.38929C29.6297 2.38061 29.542 2.36963 29.4609 2.36963C28.7164 2.36963 28.081 2.90281 27.9569 3.6375C27.8792 4.0423 27.9808 4.45486 28.2136 4.77736C28.4448 5.10676 28.7879 5.33017 29.187 5.39921C29.2881 5.42293 29.385 5.42287 29.4525 5.42282C29.4554 5.42282 29.4582 5.42282 29.4609 5.42282C30.2085 5.42282 30.8315 4.88682 30.9647 4.16525L30.9648 4.16526L30.9657 4.15988C31.0316 3.75337 30.9439 3.3504 30.6985 3.01447C30.4629 2.67918 30.1162 2.46933 29.723 2.39286ZM29.3428 3.9905L29.3377 3.9829L29.3321 3.97569C29.3189 3.95868 29.307 3.92279 29.3155 3.87572L29.3157 3.87574L29.3168 3.86808C29.3252 3.81186 29.3803 3.75638 29.4577 3.75489L29.4746 3.76052L29.5035 3.76315C29.5171 3.76438 29.5475 3.77792 29.5697 3.81126L29.5748 3.81886L29.5804 3.82607C29.5939 3.84341 29.6073 3.87312 29.6041 3.93582C29.5869 3.99929 29.5157 4.05475 29.4293 4.04128C29.3853 4.03282 29.356 4.01031 29.3428 3.9905Z" fill="#012E71" stroke="#012E71" stroke-width="0.5"/>
<path d="M25.1424 8.52321L25.1424 8.52317L25.138 8.52249C24.7697 8.46582 24.4003 8.7061 24.3404 9.09498C24.2839 9.46258 24.523 9.83122 24.9105 9.89221L27.4935 10.3366C27.5499 10.3522 27.5944 10.3521 27.6217 10.3521C27.623 10.3521 27.6241 10.3521 27.6253 10.3521C27.9544 10.3521 28.2384 10.1142 28.308 9.78035L28.3083 9.78042L28.3103 9.76738C28.3669 9.39978 28.1277 9.03113 27.7402 8.97015L25.1424 8.52321Z" fill="#012E71" stroke="#012E71" stroke-width="0.5"/>
<path d="M23.6981 16.9097L23.6981 16.9096L23.6937 16.909C23.3253 16.8523 22.9559 17.0926 22.8961 17.4815C22.8395 17.8491 23.0787 18.2177 23.4662 18.2787L26.0492 18.7231C26.1055 18.7387 26.15 18.7386 26.1774 18.7386C26.1786 18.7386 26.1798 18.7386 26.1809 18.7386C26.5145 18.7386 26.8076 18.504 26.8655 18.1569L26.8655 18.1569L26.866 18.1538C26.9225 17.7862 26.6834 17.4176 26.2959 17.3566L23.6981 16.9097Z" fill="#012E71" stroke="#012E71" stroke-width="0.5"/>
<path d="M22.2631 25.3054L22.2631 25.3054L22.2587 25.3047C21.8903 25.248 21.5209 25.4883 21.4611 25.8772C21.4045 26.2448 21.6437 26.6134 22.0311 26.6744L24.6142 27.1188C24.6705 27.1344 24.715 27.1343 24.7424 27.1343C24.7436 27.1343 24.7448 27.1343 24.7459 27.1343C25.0842 27.1343 25.3725 26.8861 25.4302 26.5544L25.4302 26.5544L25.431 26.5496C25.4875 26.182 25.2484 25.8134 24.8609 25.7524L22.2631 25.3054Z" fill="#012E71" stroke="#012E71" stroke-width="0.5"/>
<path d="M21.4607 34.0643L21.5032 33.8174L21.2563 33.7754L20.8183 33.7009L20.8183 33.7009L20.8159 33.7005C20.4578 33.6432 20.0967 33.8798 20.0291 34.2549C20.0136 34.3132 20.0138 34.3643 20.0138 34.3824C20.0139 34.3835 20.0139 34.3844 20.0139 34.3853C20.0139 34.7146 20.2622 35.0016 20.5825 35.0599L20.5825 35.0599L20.5853 35.0604L21.0233 35.1349L21.2693 35.1768L21.3116 34.9308L21.4607 34.0643Z" fill="#012E71" stroke="#012E71" stroke-width="0.5"/>
<path d="M3.31402 33.6213H35.7134" stroke="#012E71" stroke-width="0.5"/>
</svg>
