<svg width="40" height="76" viewBox="0 0 40 76" fill="none" xmlns="http://www.w3.org/2000/svg">
<path d="M39.8 19.28H39.78C39.72 18.92 39.61 18.63 39.45 18.41L39.73 17.66C39.77 17.55 39.79 17.44 39.79 17.33C39.79 16.95 39.56 16.6 39.2 16.46H39.19C39.08 16.42 38.97 16.4 38.86 16.4C38.48 16.4 38.12 16.64 37.98 17L37.7 17.75C37.3 17.85 36.94 18.11 36.63 18.39C36.22 18.76 35.82 19.25 35.44 19.77C34.77 20.71 34.17 21.75 33.83 22.42C33.6 22.51 33.4 22.69 33.3 22.95H33.29L29.75 32.3C29.71 32.41 29.69 32.52 29.69 32.62C29.69 32.74 29.71 32.85 29.75 32.95L29.36 34H28.48L28.52 33.72L28.56 33.49L28.66 32.95V32.84L33.75 3.18C33.79 2.93 33.73 2.68 33.58 2.47C33.58 2.47 33.58 2.45 33.56 2.45C32.45 0.92 30.69 0 28.8 0C27.59 0 26.43 0.37 25.44 1.06H25.43C25.25 1.2 25.09 1.41 25.04 1.69L23.83 8.78V8.85C23.83 8.85 23.81 8.92 23.81 8.94L22.4 17.13C22.4 17.13 22.4 17.19 22.38 17.22V17.27C22.38 17.27 22.37 17.29 22.37 17.3L20.95 25.6V25.69L19.74 32.68V32.71L19.73 32.78L19.64 33.31L19.59 33.54V33.56L19.52 33.99H17.06L16.74 22.95L16.72 22.07L16.63 19.41V18.76H16.62L16.6 17.88V17.81L16.53 15.65C16.51 14.9 16.19 14.24 15.7 13.76C15.21 13.28 14.53 12.98 13.79 12.98H13.7L13.29 13C12.57 13.02 11.88 13.32 11.37 13.85C10.89 14.37 10.63 15.04 10.63 15.74V15.9L10.73 19.53V19.64L11.15 33.99H9.94L5.93 23.07C5.9 22.97 5.86 22.87 5.79 22.78L5.77 22.76L1.69 17.35C1.5 17.11 1.22 16.98 0.93 16.98C0.83 16.98 0.72 17 0.62 17.03H0.61C0.23 17.17 0 17.53 0 17.91V17.97L0.18 21.36C0.18 21.36 0.19 21.41 0.19 21.44C0.19 21.45 0.2 21.46 0.2 21.46L0.38 24.76C0.38 24.76 0.38 24.81 0.4 24.87V24.98L0.43 25.06L3.7 33.99H3.12C2.91 33.99 2.73 34.05 2.58 34.16L2.54 34.19L2.51 34.21C2.51 34.21 2.47 34.24 2.44 34.28L2.42 34.3C2.24 34.5 2.16 34.75 2.18 35L5.41 74.98C5.45 75.46 5.85 75.85 6.35 75.85H32.4C32.9 75.85 33.3 75.46 33.34 74.98L36.57 35.01C36.59 34.75 36.52 34.5 36.33 34.3V34.28C36.33 34.28 36.25 34.22 36.24 34.21L36.22 34.19L36.17 34.16C36.1 34.11 36.02 34.07 35.93 34.04L39.28 25.23V25.21C39.35 24.99 39.35 24.75 39.26 24.51V24.48C39.26 24.48 39.25 24.47 39.24 24.47C39.43 23.75 39.64 22.69 39.76 21.7C39.89 20.61 39.89 19.83 39.79 19.28H39.8ZM21.43 33.89L21.46 33.72L21.5 33.48L21.6 32.94V32.83L22.63 26.85L24.31 27.14C24.38 27.14 24.45 27.16 24.47 27.16C24.93 27.16 25.32 26.82 25.4 26.37C25.48 25.87 25.16 25.37 24.63 25.28L22.95 24.99L24.08 18.46L25.75 18.75C25.82 18.76 25.88 18.76 25.9 18.76C26.36 18.76 26.76 18.44 26.84 17.97C26.84 17.92 26.84 17.88 26.84 17.83C26.84 17.38 26.53 16.96 26.05 16.89L24.39 16.6L25.5 10.07L27.18 10.36C27.25 10.37 27.31 10.38 27.34 10.38C27.79 10.38 28.17 10.05 28.27 9.61V9.58C28.35 9.09 28.03 8.59 27.5 8.5L25.82 8.21L26.81 2.42C27.41 2.07 28.09 1.89 28.79 1.89C28.86 1.89 28.92 1.91 28.99 1.91C28.21 1.99 27.56 2.57 27.43 3.36H27.42C27.4 3.47 27.39 3.57 27.39 3.67C27.39 4.04 27.51 4.4 27.72 4.69H27.73C27.99 5.07 28.38 5.32 28.83 5.41C28.83 5.42 28.83 5.42 28.83 5.42H28.86C28.99 5.45 29.11 5.45 29.16 5.45C30.04 5.45 30.76 4.82 30.91 3.98H30.92C30.99 3.51 30.89 3.04 30.61 2.65H30.6C30.42 2.39 30.17 2.2 29.9 2.07C30.64 2.29 31.3 2.71 31.8 3.3L26.76 32.68V32.75H26.74L26.65 33.32L26.61 33.57L26.55 34H21.39L21.41 33.89H21.43ZM15.16 33.99H13.01L12.63 20.43L14.78 20.37L15.16 33.99ZM14.67 16.65L14.72 18.33V18.49L12.57 18.55L12.52 16.71L14.67 16.65ZM2.09 21.96L2.65 21.76L3.52 22.91L2.17 23.41L2.09 21.96ZM2.51 25.28L4.48 24.56L7.93 33.99H5.7L2.51 25.28ZM31.53 73.96H7.2L4.12 35.87H34.61L31.53 73.96ZM34.29 33.02L31.83 32.08L34.71 24.49L37.18 25.43L34.29 33.02ZM37.86 21.67C37.77 22.35 37.64 23.02 37.53 23.55L35.7 22.86C35.96 22.39 36.31 21.8 36.7 21.23C37.26 20.41 37.64 19.98 37.88 19.76C37.91 19.73 37.92 19.72 37.94 19.7C37.98 19.99 38 20.56 37.86 21.67Z" fill="#012E71"/>
</svg>
