<svg width="30" height="53" viewBox="0 0 30 53" fill="none" xmlns="http://www.w3.org/2000/svg">
<path fill-rule="evenodd" clip-rule="evenodd" d="M19.6801 0H23.09C26.9 0 30 3.20001 30 7.10999V45.88C30 49.8101 26.9 53 23.09 53H6.91003C3.09998 53 0 49.8101 0 45.88V7.10999C0 3.19 3.09998 0 6.91003 0H10.3101H10.34H10.37H19.62H19.65H19.6801ZM11.4301 2.19V4.17999H18.5601V2.19H11.4301ZM23.08 50.8101C25.7 50.8101 27.8199 48.6 27.8199 45.88V7.10999C27.8199 4.40002 25.6899 2.19 23.08 2.19H20.73V5.28003C20.73 5.88 20.24 6.37 19.64 6.37H10.34C9.73999 6.37 9.25 5.88 9.25 5.28003V2.19H6.91003C4.29004 2.19 2.17004 4.39001 2.17004 7.10999V45.88C2.17004 48.6 4.30005 50.8101 6.91003 50.8101H23.08ZM18.5699 17.45L17.86 25.66H19.39C19.78 25.66 20.15 25.88 20.34 26.22C20.53 26.5601 20.52 26.98 20.3199 27.3199L13.72 38.26C13.52 38.59 13.17 38.78 12.79 38.78C12.6801 38.78 12.5601 38.77 12.45 38.73C11.97 38.5699 11.66 38.1 11.71 37.59L12.67 27.85H10.62C10.21 27.85 9.83997 27.62 9.65002 27.25C9.45996 26.89 9.5 26.4399 9.73999 26.11L16.61 16.72C16.9 16.3199 17.41 16.17 17.87 16.34C18.33 16.51 18.61 16.96 18.5699 17.45ZM14.3419 32.9902L14.9399 26.86C14.97 26.55 14.87 26.25 14.66 26.02C14.45 25.79 14.16 25.66 13.85 25.66H12.75L16.05 21.15L15.58 26.66C15.55 26.96 15.66 27.27 15.86 27.49C16.0601 27.71 16.36 27.85 16.66 27.85H17.4399L14.3419 32.9902Z" fill="#012E71"/>
</svg>
