<svg width="30" height="54" viewBox="0 0 30 54" fill="none" xmlns="http://www.w3.org/2000/svg">
<path d="M23.0853 53.7279H6.9147C3.10345 53.7279 0 50.5373 0 46.6092V7.84122C0 3.91853 3.10345 0.733398 6.9147 0.733398H23.0853C26.8966 0.733398 30 3.924 30 7.84122V46.6092C30 50.5373 26.8966 53.7279 23.0853 53.7279ZM6.9147 2.91874C4.30127 2.91874 2.17786 5.12594 2.17786 7.84122V46.6092C2.17786 49.3299 4.30127 51.5426 6.9147 51.5426H23.0853C25.6987 51.5426 27.8221 49.3299 27.8221 46.6092V7.84122C27.8221 5.12594 25.6987 2.91874 23.0853 2.91874H6.9147Z" fill="#012E71"/>
<path d="M14.9945 7.0983H10.3448C9.74588 7.0983 9.25586 6.6066 9.25586 6.00563V1.8207C9.25586 1.21973 9.74588 0.728027 10.3448 0.728027C10.9437 0.728027 11.4337 1.21973 11.4337 1.8207V4.91296H15C15.5989 4.91296 16.0889 5.40466 16.0889 6.00563C16.0889 6.6066 15.5989 7.0983 14.9945 7.0983Z" fill="#012E71"/>
<path d="M19.6497 7.0983H14.9946C14.3957 7.0983 13.9056 6.6066 13.9056 6.00563C13.9056 5.40466 14.3957 4.91296 14.9946 4.91296H18.5608V1.8207C18.5608 1.21973 19.0508 0.728027 19.6497 0.728027C20.2487 0.728027 20.7387 1.21973 20.7387 1.8207V6.00563C20.7387 6.6066 20.2487 7.0983 19.6497 7.0983Z" fill="#012E71"/>
<path d="M12.7841 39.5179C12.6697 39.5179 12.5554 39.5015 12.441 39.4632C11.9565 39.3048 11.6516 38.8295 11.7006 38.3214L12.6588 28.5802H10.6116C10.2033 28.5802 9.82761 28.3508 9.64249 27.9793C9.45737 27.6132 9.49549 27.1707 9.73505 26.8374L16.6008 17.4459C16.8893 17.0526 17.4066 16.8941 17.8639 17.069C18.3213 17.2438 18.6098 17.6972 18.5663 18.1835L17.8585 26.3894H19.383C19.775 26.3894 20.1398 26.6025 20.3303 26.9467C20.5209 27.2909 20.5155 27.7116 20.314 28.0503L13.7151 38.9934C13.5136 39.3267 13.1597 39.5179 12.7841 39.5179ZM12.7623 26.3949H13.8621C14.167 26.3949 14.461 26.526 14.6679 26.7555C14.8748 26.9849 14.9728 27.2909 14.9456 27.5968L14.3412 33.7431L17.4556 28.5857H16.677C16.3721 28.5857 16.0835 28.4546 15.8766 28.2306C15.6697 28.0066 15.5663 27.7006 15.5935 27.4002L16.0672 21.8876L12.7623 26.3949Z" fill="#012E71"/>
</svg>
