<svg width="56" height="58" viewBox="0 0 56 58" fill="none" xmlns="http://www.w3.org/2000/svg">
<path d="M55.5279 29.9769C54.7123 16.0415 43.1493 4.95537 28.8356 4.42634V1.73388C28.8356 1.1779 28.3849 0.728027 27.8296 0.728027C27.2743 0.728027 26.8237 1.17801 26.8237 1.73388V4.423C12.4491 4.88969 0.819776 15.9993 0.00162705 29.977C-0.024535 30.4383 0.267144 30.8595 0.70778 30.9963C1.14908 31.133 1.62846 30.9508 1.86715 30.5558C3.24383 28.2799 5.77932 26.7395 8.70246 26.7401C11.9508 26.7393 14.7271 28.6398 15.9536 31.3363C16.1172 31.695 16.4759 31.9258 16.8704 31.9258C17.2648 31.9258 17.6235 31.6944 17.7858 31.335C19.3523 27.878 22.7655 25.3768 26.8248 25.0395V29.4962V50.6868C26.8248 52.0788 26.2628 53.3296 25.3514 54.2428C24.4388 55.1541 23.1874 55.7153 21.7954 55.7161C20.4034 55.7153 19.1526 55.1548 18.2394 54.2428C17.328 53.3295 16.7661 52.0781 16.7661 50.6868C16.7661 50.1308 16.3154 49.6809 15.7602 49.6809C15.205 49.6809 14.7544 50.1309 14.7544 50.6868C14.7557 54.5756 17.9068 57.7273 21.7955 57.7279C25.6843 57.7271 28.8353 54.5754 28.8367 50.6868V29.4963V25.0536C32.8381 25.4338 36.195 27.9156 37.7455 31.335C37.9078 31.6944 38.2651 31.925 38.6609 31.9258C39.0551 31.9258 39.4127 31.6951 39.5764 31.3363C40.8022 28.6398 43.5792 26.7393 46.8275 26.7401C49.7506 26.7401 52.2867 28.2798 53.6628 30.5558C53.9009 30.9508 54.3803 31.1332 54.8222 30.9963C55.2617 30.8595 55.554 30.4376 55.5279 29.9769ZM17.5322 17.2816C16.702 20.4226 16.1487 23.9874 15.9422 27.8018C14.1282 25.91 11.5559 24.7291 8.70179 24.7283C6.31192 24.7283 4.12176 25.5598 2.40564 26.94C4.31414 16.9005 12.3506 8.93802 22.6206 6.91419C22.2196 7.334 21.8347 7.79468 21.4678 8.29833C19.8282 10.5582 18.4984 13.6362 17.5322 17.2816ZM27.764 22.9855C23.8559 22.9863 20.352 24.6868 17.9815 27.3765C18.343 21.6651 19.5179 16.5895 21.1789 12.8764C22.1177 10.7714 23.2141 9.11091 24.3522 8.02056C24.9208 7.47394 25.4968 7.07038 26.0655 6.80553C26.6342 6.54124 27.1935 6.41254 27.7641 6.41187C28.3356 6.41265 28.8948 6.54124 29.4628 6.80553C30.4566 7.2662 31.4786 8.16618 32.4335 9.48118C33.8678 11.45 35.1353 14.3242 36.0513 17.7945C36.8044 20.6398 37.3207 23.8881 37.542 27.3711C35.172 24.6855 31.6709 22.9863 27.764 22.9855ZM46.8261 24.7283C43.9707 24.729 41.397 25.9105 39.5832 27.803C39.2506 21.6698 38.0288 16.187 36.186 12.0563C35.2519 9.96947 34.16 8.2273 32.9034 6.91352C43.1755 8.93601 51.2137 16.8993 53.1215 26.9393C51.4062 25.5599 49.216 24.7291 46.8261 24.7283Z" fill="#012E71"/>
</svg>
