<svg width="56" height="57" viewBox="0 0 56 57" fill="none" xmlns="http://www.w3.org/2000/svg">
<path d="M55.5279 29.2488C54.7123 15.3135 43.1493 4.22734 28.8356 3.69831V1.00585C28.8356 0.449876 28.3849 0 27.8296 0C27.2743 0 26.8237 0.449987 26.8237 1.00585V3.69497C12.4491 4.16166 0.819776 15.2713 0.00162705 29.249C-0.024535 29.7103 0.267144 30.1315 0.70778 30.2683C1.14908 30.405 1.62846 30.2227 1.86715 29.8278C3.24383 27.5519 5.77932 26.0114 8.70246 26.0121C11.9508 26.0113 14.7271 27.9118 15.9536 30.6083C16.1172 30.967 16.4759 31.1978 16.8704 31.1978C17.2648 31.1978 17.6235 30.9664 17.7858 30.6069C19.3523 27.15 22.7655 24.6488 26.8248 24.3115V49.9587C26.8248 51.3508 26.2628 52.6016 25.3514 53.5148C24.4388 54.4261 23.1874 54.9873 21.7954 54.9881C20.4034 54.9873 19.1526 54.4268 18.2394 53.5148C17.328 52.6014 16.7661 51.3501 16.7661 49.9587C16.7661 49.4028 16.3154 48.9529 15.7602 48.9529C15.205 48.9529 14.7544 49.4029 14.7544 49.9587C14.7557 53.8475 17.9068 56.9992 21.7955 56.9999C25.6843 56.9991 28.8353 53.8474 28.8367 49.9587V24.3256C32.8381 24.7058 36.195 27.1876 37.7455 30.6069C37.9078 30.9664 38.2651 31.197 38.6609 31.1978C39.0551 31.1978 39.4127 30.9671 39.5764 30.6083C40.8022 27.9118 43.5792 26.0113 46.8275 26.0121C49.7506 26.0121 52.2867 27.5518 53.6628 29.8278C53.9009 30.2227 54.3803 30.4052 54.8222 30.2683C55.2617 30.1315 55.554 29.7095 55.5279 29.2488ZM17.5322 16.5536C16.702 19.6946 16.1487 23.2594 15.9422 27.0737C14.1282 25.1819 11.5559 24.0011 8.70179 24.0003C6.31192 24.0003 4.12176 24.8318 2.40564 26.2119C4.31414 16.1725 12.3506 8.20999 22.6206 6.18616C22.2196 6.60598 21.8347 7.06665 21.4678 7.5703C19.8282 9.83014 18.4984 12.9081 17.5322 16.5536ZM27.764 22.2575C23.8559 22.2582 20.352 23.9588 17.9815 26.6485C18.343 20.9371 19.5179 15.8614 21.1789 12.1483C22.1177 10.0433 23.2141 8.38288 24.3522 7.29253C24.9208 6.74591 25.4968 6.34235 26.0655 6.0775C26.6342 5.81321 27.1935 5.68451 27.7641 5.68385C28.3356 5.68463 28.8948 5.81321 29.4628 6.0775C30.4566 6.53818 31.4786 7.43815 32.4335 8.75316C33.8678 10.722 35.1353 13.5961 36.0513 17.0665C36.8044 19.9118 37.3207 23.1601 37.542 26.6431C35.172 23.9574 31.6709 22.2582 27.764 22.2575ZM46.8261 24.0003C43.9707 24.001 41.397 25.1825 39.5832 27.0749C39.2506 20.9418 38.0288 15.459 36.186 11.3283C35.2519 9.24144 34.16 7.49927 32.9034 6.18549C43.1755 8.20798 51.2137 16.1713 53.1215 26.2113C51.4062 24.8319 49.216 24.0011 46.8261 24.0003Z" fill="#012E71"/>
</svg>
