<svg width="221" height="38" viewBox="0 0 221 38" fill="none" xmlns="http://www.w3.org/2000/svg">
<path d="M18.72 14.28C18.72 16.6 17.92 18.5333 16.32 20.08C14.7467 21.6 12.3333 22.36 9.08 22.36H3.72V34H0.0800003V6.12H9.08C12.2267 6.12 14.6133 6.88 16.24 8.4C17.8933 9.92 18.72 11.88 18.72 14.28ZM9.08 19.36C11.1067 19.36 12.6 18.92 13.56 18.04C14.52 17.16 15 15.9067 15 14.28C15 10.84 13.0267 9.12 9.08 9.12H3.72V19.36H9.08ZM37.9241 34L31.2841 22.6H26.8841V34H23.2441V6.12H32.2441C34.3507 6.12 36.1241 6.48 37.5641 7.2C39.0307 7.92 40.1241 8.89333 40.8441 10.12C41.5641 11.3467 41.9241 12.7467 41.9241 14.32C41.9241 16.24 41.3641 17.9333 40.2441 19.4C39.1507 20.8667 37.4974 21.84 35.2841 22.32L42.2841 34H37.9241ZM26.8841 19.68H32.2441C34.2174 19.68 35.6974 19.2 36.6841 18.24C37.6707 17.2533 38.1641 15.9467 38.1641 14.32C38.1641 12.6667 37.6707 11.3867 36.6841 10.48C35.7241 9.57333 34.2441 9.12 32.2441 9.12H26.8841V19.68ZM60.22 34.28C57.6333 34.28 55.2733 33.68 53.14 32.48C51.0067 31.2533 49.3133 29.56 48.06 27.4C46.8333 25.2133 46.22 22.76 46.22 20.04C46.22 17.32 46.8333 14.88 48.06 12.72C49.3133 10.5333 51.0067 8.84 53.14 7.64C55.2733 6.41333 57.6333 5.8 60.22 5.8C62.8333 5.8 65.2067 6.41333 67.34 7.64C69.4733 8.84 71.1533 10.52 72.38 12.68C73.6067 14.84 74.22 17.2933 74.22 20.04C74.22 22.7867 73.6067 25.24 72.38 27.4C71.1533 29.56 69.4733 31.2533 67.34 32.48C65.2067 33.68 62.8333 34.28 60.22 34.28ZM60.22 31.12C62.1667 31.12 63.9133 30.6667 65.46 29.76C67.0333 28.8533 68.26 27.56 69.14 25.88C70.0467 24.2 70.5 22.2533 70.5 20.04C70.5 17.8 70.0467 15.8533 69.14 14.2C68.26 12.52 67.0467 11.2267 65.5 10.32C63.9533 9.41333 62.1933 8.96 60.22 8.96C58.2467 8.96 56.4867 9.41333 54.94 10.32C53.3933 11.2267 52.1667 12.52 51.26 14.2C50.38 15.8533 49.94 17.8 49.94 20.04C49.94 22.2533 50.38 24.2 51.26 25.88C52.1667 27.56 53.3933 28.8533 54.94 29.76C56.5133 30.6667 58.2733 31.12 60.22 31.12ZM107.305 6.32V34H103.665V13.36L94.4653 34H91.9053L82.6653 13.32V34H79.0253V6.32H82.9453L93.1853 29.2L103.425 6.32H107.305ZM126.118 34.28C123.532 34.28 121.172 33.68 119.038 32.48C116.905 31.2533 115.212 29.56 113.958 27.4C112.732 25.2133 112.118 22.76 112.118 20.04C112.118 17.32 112.732 14.88 113.958 12.72C115.212 10.5333 116.905 8.84 119.038 7.64C121.172 6.41333 123.532 5.8 126.118 5.8C128.732 5.8 131.105 6.41333 133.238 7.64C135.372 8.84 137.052 10.52 138.278 12.68C139.505 14.84 140.118 17.2933 140.118 20.04C140.118 22.7867 139.505 25.24 138.278 27.4C137.052 29.56 135.372 31.2533 133.238 32.48C131.105 33.68 128.732 34.28 126.118 34.28ZM126.118 31.12C128.065 31.12 129.812 30.6667 131.358 29.76C132.932 28.8533 134.158 27.56 135.038 25.88C135.945 24.2 136.398 22.2533 136.398 20.04C136.398 17.8 135.945 15.8533 135.038 14.2C134.158 12.52 132.945 11.2267 131.398 10.32C129.852 9.41333 128.092 8.96 126.118 8.96C124.145 8.96 122.385 9.41333 120.838 10.32C119.292 11.2267 118.065 12.52 117.158 14.2C116.278 15.8533 115.838 17.8 115.838 20.04C115.838 22.2533 116.278 24.2 117.158 25.88C118.065 27.56 119.292 28.8533 120.838 29.76C122.412 30.6667 124.172 31.12 126.118 31.12Z" fill="#012E71"/>
<path d="M152.724 14.52C153.284 13.48 154.084 12.6667 155.124 12.08C156.19 11.4667 157.457 11.16 158.924 11.16C160.684 11.16 162.27 11.6267 163.684 12.56C165.097 13.4667 166.204 14.8 167.004 16.56C167.83 18.2933 168.244 20.3467 168.244 22.72C168.244 25.0933 167.83 27.16 167.004 28.92C166.204 30.6533 165.097 31.9867 163.684 32.92C162.27 33.8267 160.684 34.28 158.924 34.28C157.457 34.28 156.19 33.9867 155.124 33.4C154.084 32.7867 153.284 31.96 152.724 30.92V34H143.844V4.4H152.724V14.52ZM159.244 22.72C159.244 21.52 158.937 20.5867 158.324 19.92C157.71 19.2533 156.924 18.92 155.964 18.92C155.004 18.92 154.217 19.2533 153.604 19.92C152.99 20.5867 152.684 21.52 152.684 22.72C152.684 23.92 152.99 24.8533 153.604 25.52C154.217 26.1867 155.004 26.52 155.964 26.52C156.924 26.52 157.71 26.1867 158.324 25.52C158.937 24.8533 159.244 23.92 159.244 22.72ZM175.511 9.64C173.965 9.64 172.725 9.22667 171.791 8.4C170.858 7.57333 170.391 6.53333 170.391 5.28C170.391 4 170.858 2.94667 171.791 2.12C172.725 1.26666 173.965 0.839998 175.511 0.839998C177.031 0.839998 178.258 1.26666 179.191 2.12C180.125 2.94667 180.591 4 180.591 5.28C180.591 6.53333 180.125 7.57333 179.191 8.4C178.258 9.22667 177.031 9.64 175.511 9.64ZM179.911 11.44V34H171.031V11.44H179.911ZM193.962 34.28C191.829 34.28 189.935 33.9333 188.282 33.24C186.655 32.5467 185.362 31.5867 184.402 30.36C183.442 29.1333 182.895 27.7467 182.762 26.2H191.282C191.389 26.8667 191.669 27.36 192.122 27.68C192.602 28 193.202 28.16 193.922 28.16C194.375 28.16 194.735 28.0667 195.002 27.88C195.269 27.6667 195.402 27.4133 195.402 27.12C195.402 26.6133 195.122 26.2533 194.562 26.04C194.002 25.8267 193.055 25.5867 191.722 25.32C190.095 25 188.749 24.6533 187.682 24.28C186.642 23.9067 185.722 23.2667 184.922 22.36C184.149 21.4533 183.762 20.2 183.762 18.6C183.762 17.2133 184.122 15.96 184.842 14.84C185.589 13.6933 186.682 12.8 188.122 12.16C189.562 11.4933 191.309 11.16 193.362 11.16C196.402 11.16 198.775 11.9067 200.482 13.4C202.215 14.8933 203.255 16.84 203.602 19.24H195.722C195.589 18.6267 195.309 18.16 194.882 17.84C194.455 17.4933 193.882 17.32 193.162 17.32C192.709 17.32 192.362 17.4133 192.122 17.6C191.882 17.76 191.762 18.0133 191.762 18.36C191.762 18.8133 192.042 19.16 192.602 19.4C193.162 19.6133 194.055 19.84 195.282 20.08C196.909 20.4 198.282 20.76 199.402 21.16C200.522 21.56 201.495 22.2533 202.322 23.24C203.149 24.2 203.562 25.5333 203.562 27.24C203.562 28.5733 203.175 29.7733 202.402 30.84C201.629 31.9067 200.509 32.7467 199.042 33.36C197.602 33.9733 195.909 34.28 193.962 34.28Z" fill="#83C000"/>
<path d="M206.676 34.09C206.416 34.09 206.196 34 206.016 33.82C205.836 33.64 205.746 33.42 205.746 33.16C205.746 32.9 205.836 32.68 206.016 32.5C206.196 32.32 206.416 32.23 206.676 32.23C206.926 32.23 207.136 32.32 207.306 32.5C207.486 32.68 207.576 32.9 207.576 33.16C207.576 33.42 207.486 33.64 207.306 33.82C207.136 34 206.926 34.09 206.676 34.09ZM210.755 27.295C211.025 26.825 211.425 26.435 211.955 26.125C212.495 25.805 213.12 25.645 213.83 25.645C214.56 25.645 215.22 25.82 215.81 26.17C216.41 26.52 216.88 27.015 217.22 27.655C217.56 28.285 217.73 29.02 217.73 29.86C217.73 30.69 217.56 31.43 217.22 32.08C216.88 32.73 216.41 33.235 215.81 33.595C215.22 33.955 214.56 34.135 213.83 34.135C213.13 34.135 212.51 33.98 211.97 33.67C211.44 33.35 211.035 32.955 210.755 32.485V37.9H209.39V25.78H210.755V27.295ZM216.335 29.86C216.335 29.24 216.21 28.7 215.96 28.24C215.71 27.78 215.37 27.43 214.94 27.19C214.52 26.95 214.055 26.83 213.545 26.83C213.045 26.83 212.58 26.955 212.15 27.205C211.73 27.445 211.39 27.8 211.13 28.27C210.88 28.73 210.755 29.265 210.755 29.875C210.755 30.495 210.88 31.04 211.13 31.51C211.39 31.97 211.73 32.325 212.15 32.575C212.58 32.815 213.045 32.935 213.545 32.935C214.055 32.935 214.52 32.815 214.94 32.575C215.37 32.325 215.71 31.97 215.96 31.51C216.21 31.04 216.335 30.49 216.335 29.86ZM220.892 22.9V34H219.527V22.9H220.892Z" fill="#253D4E"/>
</svg>
