<svg width="56" height="56" viewBox="0 0 56 56" fill="none" xmlns="http://www.w3.org/2000/svg">
<path d="M13.2675 36.5315C9.87682 36.5315 6.66965 35.8454 4.23634 34.5929C1.49987 33.1887 0 31.2102 0 29.0322C0 26.8541 1.49987 24.8836 4.22836 23.4794C6.66965 22.2269 9.87682 21.5408 13.2595 21.5408C16.6502 21.5408 19.8574 22.2269 22.2907 23.4794C25.0192 24.8836 26.519 26.8541 26.519 29.0322C26.519 31.2102 25.0192 33.1807 22.2907 34.5849C19.8574 35.8374 16.6582 36.5315 13.2675 36.5315ZM13.2675 24.3171C7.09248 24.3171 2.78434 26.8063 2.78434 29.0322C2.78434 31.266 7.09248 33.7472 13.2675 33.7472C19.4505 33.7472 23.7506 31.258 23.7506 29.0322C23.7506 26.8063 19.4505 24.3171 13.2675 24.3171Z" fill="#012E71"/>
<path d="M41.949 35.4464C38.5583 35.4464 35.3511 34.7603 32.9178 33.5077C30.1813 32.1036 28.6895 30.133 28.6895 27.955C28.6895 25.777 30.1893 23.8064 32.9178 22.4023C35.3591 21.1497 38.5663 20.4636 41.949 20.4636C45.3396 20.4636 48.5468 21.1497 50.9801 22.4023C53.7086 23.8064 55.2085 25.777 55.2085 27.955C55.2085 30.133 53.7086 32.1036 50.9801 33.5077C48.5388 34.7523 45.3317 35.4464 41.949 35.4464ZM41.949 23.232C35.766 23.232 31.4658 25.7212 31.4658 27.947C31.4658 30.1809 35.766 32.6621 41.949 32.6621C48.132 32.6621 52.4321 30.1729 52.4321 27.947C52.4321 25.7132 48.132 23.232 41.949 23.232Z" fill="#012E71"/>
<path d="M41.949 41.4459C38.5583 41.4459 35.3511 40.7598 32.9178 39.5072C30.1813 38.1031 28.6895 36.1325 28.6895 33.9545V27.947C28.6895 27.1811 29.3117 26.5588 30.0776 26.5588C30.8435 26.5588 31.4738 27.1811 31.4738 27.947V33.9545C31.4738 36.1883 35.774 38.6695 41.9569 38.6695C47.6214 38.6695 51.6902 36.5633 52.3444 34.5289C52.5837 33.7949 53.3576 33.396 54.0916 33.6354C54.8255 33.8667 55.2244 34.6566 54.9931 35.3826C53.8283 38.9567 48.467 41.4459 41.949 41.4459Z" fill="#012E71"/>
<path d="M13.2675 55.24C9.87682 55.24 6.66965 54.5539 4.23634 53.3013C1.49987 51.8972 0 49.9186 0 47.7406V41.7332C0 40.9673 0.622288 40.345 1.38818 40.345C2.15407 40.345 2.78434 40.9673 2.78434 41.7332V47.7406C2.78434 49.9745 7.09248 52.4556 13.2675 52.4556C18.9399 52.4556 23.0087 50.3494 23.6629 48.315C23.9022 47.5811 24.6761 47.1822 25.4101 47.4215C26.1361 47.6608 26.535 48.4427 26.3036 49.1687C25.1548 52.7429 19.7935 55.24 13.2675 55.24Z" fill="#012E71"/>
<path d="M13.2675 49.2325C9.87682 49.2325 6.66965 48.5464 4.23634 47.2938C1.49987 45.8897 0 43.9191 0 41.7411V35.7336C0 34.9677 0.622288 34.3455 1.38818 34.3455C2.15407 34.3455 2.78434 34.9677 2.78434 35.7336V41.7411C2.78434 43.975 7.09248 46.4561 13.2675 46.4561C18.9399 46.4561 23.0087 44.3499 23.6629 42.3155C23.9022 41.5815 24.6761 41.1826 25.4101 41.422C26.1361 41.6613 26.535 42.4432 26.3036 43.1692C25.1548 46.7433 19.7935 49.2325 13.2675 49.2325Z" fill="#012E71"/>
<path d="M13.2675 43.2331C9.87682 43.2331 6.66965 42.547 4.23634 41.2865C1.49987 39.8824 0 37.9118 0 35.7338V29.7263C0 28.9604 0.622288 28.3381 1.38818 28.3381C2.15407 28.3381 2.78434 28.9604 2.78434 29.7263V35.7338C2.78434 37.9676 7.09248 40.4488 13.2675 40.4488C18.9399 40.4488 23.0087 38.3426 23.6629 36.3082C23.9022 35.5742 24.6761 35.1753 25.4101 35.4147C26.1361 35.654 26.535 36.4359 26.3036 37.1619C25.1548 40.736 19.7935 43.2331 13.2675 43.2331Z" fill="#012E71"/>
<path d="M41.949 47.4534C38.5583 47.4534 35.3511 46.7673 32.9178 45.5148C30.1813 44.1106 28.6895 42.1401 28.6895 39.9621V33.9546C28.6895 33.1887 29.3117 32.5664 30.0776 32.5664C30.8435 32.5664 31.4738 33.1887 31.4738 33.9546V39.9621C31.4738 42.1959 35.774 44.6771 41.9569 44.6771C47.6214 44.6771 51.6902 42.5709 52.3444 40.5365C52.5837 39.8025 53.3576 39.4036 54.0916 39.6429C54.8255 39.8823 55.2244 40.6641 54.9931 41.3901C53.8283 44.9563 48.467 47.4534 41.949 47.4534Z" fill="#012E71"/>
<path d="M24.0937 14.9908C20.695 14.9908 17.4878 14.2967 15.0625 13.0521C12.326 11.6479 10.8262 9.67737 10.8262 7.49936C10.8262 5.32136 12.326 3.35078 15.0625 1.94664C17.4878 0.686112 20.695 0 24.0937 0C27.4764 0 30.6835 0.686112 33.1248 1.93867C35.8533 3.3428 37.3612 5.31338 37.3612 7.49139C37.3612 9.66939 35.8533 11.64 33.1248 13.0441C30.6756 14.3046 27.4684 14.9908 24.0937 14.9908ZM24.0937 2.77636C17.9027 2.77636 13.6025 5.26551 13.6025 7.49139C13.6025 9.72524 17.9027 12.2064 24.0937 12.2064C30.2687 12.2064 34.5688 9.71726 34.5688 7.49139C34.5688 5.26551 30.2687 2.77636 24.0937 2.77636Z" fill="#012E71"/>
<path d="M24.0937 20.9981C20.695 20.9981 17.4878 20.304 15.0625 19.0595C12.326 17.6553 10.8262 15.6847 10.8262 13.5067V7.49926C10.8262 6.73337 11.4485 6.11108 12.2223 6.11108C12.9882 6.11108 13.6105 6.73337 13.6105 7.49926V13.5067C13.6105 15.7406 17.9107 18.2218 24.1016 18.2218C29.7661 18.2218 33.8349 16.1156 34.4891 14.0812C34.7284 13.3552 35.5023 12.9483 36.2362 13.1876C36.9623 13.419 37.3691 14.2088 37.1378 14.9348C35.973 18.501 30.6117 20.9981 24.0937 20.9981Z" fill="#012E71"/>
<path d="M12.2145 25.035C11.4406 25.035 10.8184 24.4127 10.8184 23.6469V13.4988C10.8184 12.7329 11.4406 12.1106 12.2145 12.1106C12.9804 12.1106 13.6027 12.7329 13.6027 13.4988V23.6469C13.5947 24.4127 12.9804 25.035 12.2145 25.035Z" fill="#012E71"/>
</svg>
