<svg width="68" height="36" viewBox="0 0 68 36" fill="none" xmlns="http://www.w3.org/2000/svg">
<path d="M61.7211 29.7195H65.5351C66.3401 29.7195 67 29.0668 67 28.2704V17.0176C67 16.7826 66.9472 16.5607 66.8416 16.3518L61.985 7.00494C61.7343 6.52193 61.2328 6.22168 60.6785 6.22168H44.5645V29.7195" stroke="#012E71" stroke-width="2" stroke-miterlimit="10" stroke-linecap="round" stroke-linejoin="round"/>
<path d="M62.962 17.9708L59.0291 10.1382H49.8438V17.9708H62.962Z" stroke="#012E71" stroke-width="2" stroke-miterlimit="10" stroke-linecap="round" stroke-linejoin="round"/>
<path d="M30.0479 29.7197H45.2644H49.8439" stroke="#012E71" stroke-width="2" stroke-miterlimit="10" stroke-linecap="round" stroke-linejoin="round"/>
<path d="M19.4899 29.7195H14.2109V3.10175C14.2109 1.93991 15.1611 1 16.3357 1H42.4401C43.6147 1 44.5649 1.93991 44.5649 3.10175V8.40181" stroke="#012E71" stroke-width="2" stroke-miterlimit="10" stroke-linecap="round" stroke-linejoin="round"/>
<path d="M31.3672 24.4978H44.5646" stroke="#012E71" stroke-width="2" stroke-miterlimit="10" stroke-linecap="round" stroke-linejoin="round"/>
<path d="M3.99512 9.69434H23.6988" stroke="#012E71" stroke-width="2" stroke-miterlimit="10" stroke-linecap="round" stroke-linejoin="round"/>
<path d="M1 13.8323H20.7037" stroke="#012E71" stroke-width="2" stroke-miterlimit="10" stroke-linecap="round" stroke-linejoin="round"/>
<path d="M4.81348 17.7097H24.5172" stroke="#012E71" stroke-width="2" stroke-miterlimit="10" stroke-linecap="round" stroke-linejoin="round"/>
<path d="M14.2109 24.4978H16.8504" stroke="#012E71" stroke-width="2" stroke-miterlimit="10" stroke-linecap="round" stroke-linejoin="round"/>
<path d="M24.7692 34.9413C27.6847 34.9413 30.0481 32.6034 30.0481 29.7195C30.0481 26.8357 27.6847 24.4978 24.7692 24.4978C21.8537 24.4978 19.4902 26.8357 19.4902 29.7195C19.4902 32.6034 21.8537 34.9413 24.7692 34.9413Z" stroke="#012E71" stroke-width="2" stroke-miterlimit="10" stroke-linecap="round" stroke-linejoin="round"/>
<path d="M56.442 34.9413C59.3575 34.9413 61.721 32.6034 61.721 29.7195C61.721 26.8357 59.3575 24.4978 56.442 24.4978C53.5266 24.4978 51.1631 26.8357 51.1631 29.7195C51.1631 32.6034 53.5266 34.9413 56.442 34.9413Z" stroke="#012E71" stroke-width="2" stroke-miterlimit="10" stroke-linecap="round" stroke-linejoin="round"/>
</svg>
