<svg width="51" height="51" viewBox="0 0 51 51" fill="none" xmlns="http://www.w3.org/2000/svg">
<path d="M25.5 26.9281C24.7134 26.9281 24.0719 26.2866 24.0719 25.5V2.85624H9.22552C5.71249 2.85624 2.85624 5.71249 2.85624 9.22552V19.7875C2.85624 20.5741 2.21474 21.2156 1.42812 21.2156C0.641509 21.2156 0 20.5741 0 19.7875V9.22552C0 4.13926 4.13926 0 9.22552 0H25.5C26.2943 0 26.9281 0.641509 26.9281 1.42812V25.5C26.9281 26.2866 26.2866 26.9281 25.5 26.9281Z" fill="#012E71"/>
<path d="M49.5723 26.9281H31.2129C30.4186 26.9281 29.7848 26.2866 29.7848 25.5C29.7848 24.7134 30.4263 24.0719 31.2129 24.0719H48.1365V9.22552C48.1365 5.71249 45.2803 2.85624 41.7672 2.85624H25.5004C24.7138 2.85624 24.0723 2.21474 24.0723 1.42812C24.0723 0.641509 24.7138 0 25.5004 0H41.7749C46.8611 0 51.0004 4.13926 51.0004 9.22552V25.5C51.0004 26.2866 50.3589 26.9281 49.5723 26.9281Z" fill="#012E71"/>
<path d="M25.5 50.9999H9.22552C4.13926 50.9999 0 46.8606 0 41.7744V25.4999C0 24.7133 0.641509 24.0718 1.42812 24.0718H19.7875C20.5741 24.0718 21.2156 24.7133 21.2156 25.4999C21.2156 26.2865 20.5741 26.928 19.7875 26.928H2.85624V41.7744C2.85624 45.2874 5.71249 48.1437 9.22552 48.1437H25.5C26.2943 48.1437 26.9281 48.7852 26.9281 49.5718C26.9281 50.3584 26.2866 50.9999 25.5 50.9999Z" fill="#012E71"/>
<path d="M20.1156 14.8921H6.81191C6.0253 14.8921 5.38379 14.2506 5.38379 13.464C5.38379 12.6774 6.0253 12.0359 6.81191 12.0359H20.1156C20.9022 12.0359 21.5437 12.6774 21.5437 13.464C21.5361 14.2506 20.9022 14.8921 20.1156 14.8921Z" fill="#012E71"/>
<path d="M13.4643 21.544C12.6776 21.544 12.0361 20.9025 12.0361 20.1158V6.81216C12.0361 6.02554 12.6776 5.38403 13.4643 5.38403C14.2509 5.38403 14.8924 6.02554 14.8924 6.81216V20.1082C14.8924 20.9025 14.2509 21.544 13.4643 21.544Z" fill="#012E71"/>
<path d="M18.2371 43.7373C17.8706 43.7373 17.504 43.5998 17.229 43.3172L7.68278 33.771C7.12527 33.2135 7.12527 32.3123 7.68278 31.7548C8.24028 31.1973 9.14145 31.1973 9.70658 31.7548L19.2529 41.3011C19.8104 41.8586 19.8104 42.7597 19.2529 43.3249C18.9626 43.5998 18.6037 43.7373 18.2371 43.7373Z" fill="#012E71"/>
<path d="M8.69086 43.7371C8.32428 43.7371 7.95771 43.5996 7.68278 43.3171C7.12527 42.7596 7.12527 41.8508 7.68278 41.2933L17.229 31.747C17.7865 31.1895 18.6877 31.1895 19.2529 31.747C19.8104 32.3045 19.8104 33.2057 19.2529 33.7632L9.70658 43.3094C9.42401 43.5996 9.05744 43.7371 8.69086 43.7371Z" fill="#012E71"/>
<path d="M44.1879 14.8921H30.8842C30.0976 14.8921 29.4561 14.2506 29.4561 13.464C29.4561 12.6774 30.0976 12.0359 30.8842 12.0359H44.1879C44.9745 12.0359 45.616 12.6774 45.616 13.464C45.616 14.2506 44.9745 14.8921 44.1879 14.8921Z" fill="#012E71"/>
<path d="M41.7749 50.9999H25.5004C24.7138 50.9999 24.0723 50.3584 24.0723 49.5718V25.4999C24.0723 24.7133 24.7138 24.0718 25.5004 24.0718C26.2946 24.0718 26.9285 24.7133 26.9285 25.4999V48.1437H41.7749C45.2879 48.1437 48.1441 45.2874 48.1441 41.7744V31.2124C48.1441 30.4258 48.7857 29.7843 49.5723 29.7843C50.3589 29.7843 51.0004 30.4258 51.0004 31.2124V41.7744C51.0004 46.8606 46.8611 50.9999 41.7749 50.9999Z" fill="#012E71"/>
<path d="M37.5355 30.3113C36.5045 30.3113 35.6797 31.1437 35.6797 32.1671C35.6797 33.1904 36.5121 34.0229 37.5355 34.0229C38.5588 34.0229 39.3913 33.1904 39.3913 32.1671C39.3913 31.1437 38.5588 30.3113 37.5355 30.3113Z" fill="#012E71"/>
<path d="M37.5355 41.0413C36.5045 41.0413 35.6797 41.8737 35.6797 42.8971C35.6797 43.9204 36.5121 44.7528 37.5355 44.7528C38.5588 44.7528 39.3913 43.9204 39.3913 42.8971C39.3913 41.8737 38.5588 41.0413 37.5355 41.0413Z" fill="#012E71"/>
<path d="M44.1879 38.9642H30.8842C30.0976 38.9642 29.4561 38.3226 29.4561 37.536C29.4561 36.7494 30.0976 36.1079 30.8842 36.1079H44.1879C44.9745 36.1079 45.616 36.7494 45.616 37.536C45.616 38.3226 44.9745 38.9642 44.1879 38.9642Z" fill="#012E71"/>
</svg>
