<svg width="20" height="20" viewBox="0 0 20 20" fill="none" xmlns="http://www.w3.org/2000/svg">
<path fill-rule="evenodd" clip-rule="evenodd" d="M11.6323 1.10996C12.7054 0.0352083 14.446 0.0345516 15.5199 1.10849L18.5157 4.10427C19.5805 5.16905 19.5915 6.89281 18.5405 7.97118L8.21509 18.5651C7.50956 19.289 6.5419 19.6972 5.53147 19.6971L2.24909 19.697C0.969845 19.6969 -0.0517684 18.6305 0.00203158 17.3515L0.142332 14.0159C0.18183 13.0769 0.572109 12.1869 1.23595 11.5221L11.6323 1.10996ZM14.4601 2.16996C13.9719 1.6818 13.1807 1.6821 12.693 2.17062L10.6867 4.17994L15.4745 8.9678L17.4671 6.92342C17.9448 6.43325 17.9398 5.64972 17.4558 5.16573L14.4601 2.16996ZM2.29661 12.5827L9.62683 5.2414L14.4275 10.0421L7.1417 17.5173C6.71839 17.9517 6.13779 18.1966 5.53153 18.1966L2.24916 18.1964C1.82274 18.1964 1.4822 17.8409 1.50014 17.4146L1.64044 14.0791C1.66414 13.5156 1.8983 12.9816 2.29661 12.5827Z" fill="#253D4E"/>
<path d="M19.1132 19.6168C19.5272 19.6168 19.8629 19.2809 19.8629 18.8665C19.8629 18.4522 19.5272 18.1162 19.1132 18.1162H12.4098C11.9957 18.1162 11.6601 18.4522 11.6601 18.8665C11.6601 19.2809 11.9957 19.6168 12.4098 19.6168H19.1132Z" fill="#253D4E"/>
</svg>
