<svg width="38" height="34" viewBox="0 0 38 34" fill="none" xmlns="http://www.w3.org/2000/svg">
<path d="M33.4999 6.6618L31.499 8.55981L33.0487 10.1088L35.0496 8.21081L33.4999 6.6618Z" fill="#83C000"/>
<path d="M24.0587 2.10132H20.5166V6.43249H24.0587V2.10132Z" fill="#83C000"/>
<path d="M9.72656 26.569C12.3752 30.649 17.0497 33.3568 22.3723 33.3568C30.6329 33.3568 37.3269 26.8386 37.3269 18.795C37.3269 10.7514 30.6329 4.23315 22.3723 4.23315C17.1378 4.23315 12.5325 6.84901 9.86497 10.8126L9.72656 26.569Z" fill="white"/>
<path d="M9.73242 26.5629C12.3811 30.6429 17.0556 33.3507 22.3781 33.3507C30.6387 33.3507 37.3328 26.8325 37.3328 18.7889C37.3328 10.7452 30.6387 4.22705 22.3781 4.22705C17.1437 4.22705 12.5384 6.84291 9.87083 10.8065" stroke="#83C000" stroke-width="2.118" stroke-miterlimit="10" stroke-linecap="round"/>
<path d="M23.8638 19.6589C24.3671 18.8257 24.084 17.7536 23.2347 17.2635C22.379 16.7735 21.278 17.0491 20.7747 17.8762C20.2714 18.7093 20.5545 19.7814 21.4039 20.2715C22.2595 20.7677 23.3605 20.492 23.8638 19.6589Z" fill="#83C000"/>
<path d="M33.1686 6.48135L35.2007 8.51522C35.4838 8.79703 35.9431 8.80315 36.2325 8.52748C36.5219 8.2518 36.5282 7.80459 36.2451 7.52279L34.213 5.48892C33.9298 5.20712 33.4706 5.20099 33.1812 5.47667C32.8981 5.75234 32.8918 6.19955 33.1686 6.48135Z" fill="#83C000"/>
<path d="M22.2588 18.8684L28.4495 22.4706" stroke="#83C000" stroke-width="2.6965" stroke-miterlimit="10" stroke-linecap="round"/>
<path d="M24.637 2.26667H19.994C19.3523 2.26667 18.8301 1.7582 18.8301 1.13333C18.8301 0.508469 19.3523 0 19.994 0H24.637C25.2788 0 25.8009 0.508469 25.8009 1.13333C25.8009 1.7582 25.2788 2.26667 24.637 2.26667Z" fill="#83C000"/>
<path d="M13.7598 27.1817C15.968 29.332 19.0131 30.6552 22.379 30.6552C29.1108 30.6552 34.5654 25.3439 34.5654 18.7889C34.5654 12.234 29.1108 6.92261 22.379 6.92261C19.6988 6.92261 17.2263 7.76189 15.2131 9.18927" stroke="#83C000" stroke-width="1.2056" stroke-miterlimit="10" stroke-linecap="round"/>
<path d="M3.54199 23.5059H9.86484" stroke="#83C000" stroke-width="2.118" stroke-miterlimit="10" stroke-linecap="round"/>
<path d="M0.666992 20.0142H14.1809" stroke="#83C000" stroke-width="2.118" stroke-miterlimit="10" stroke-linecap="round"/>
<path d="M4.97656 16.5222H17.0497" stroke="#83C000" stroke-width="2.118" stroke-miterlimit="10" stroke-linecap="round"/>
<path d="M2.10156 13.0303H12.7403" stroke="#83C000" stroke-width="2.118" stroke-miterlimit="10" stroke-linecap="round"/>
</svg>
