<svg width="67" height="67" viewBox="0 0 67 67" fill="none" xmlns="http://www.w3.org/2000/svg">
<path d="M33.39 35.26C32.36 35.26 31.52 34.42 31.52 33.39V3.74H12.08C7.48 3.74 3.74 7.48 3.74 12.08V25.91C3.74 26.94 2.9 27.78 1.87 27.78C0.84 27.78 0 26.94 0 25.91V12.08C0 5.42 5.42 0 12.08 0H33.39C34.43 0 35.26 0.84 35.26 1.87V33.39C35.26 34.42 34.42 35.26 33.39 35.26Z" fill="#83C000"/>
<path d="M64.91 35.26H40.87C39.83 35.26 39 34.42 39 33.39C39 32.36 39.84 31.52 40.87 31.52H63.03V12.08C63.03 7.48 59.29 3.74 54.69 3.74H33.39C32.36 3.74 31.52 2.9 31.52 1.87C31.52 0.84 32.36 0 33.39 0H54.7C61.36 0 66.78 5.42 66.78 12.08V33.39C66.78 34.42 65.94 35.26 64.91 35.26Z" fill="#83C000"/>
<path d="M33.39 66.78H12.08C5.42 66.78 0 61.36 0 54.7V33.39C0 32.36 0.84 31.52 1.87 31.52H25.91C26.94 31.52 27.78 32.36 27.78 33.39C27.78 34.42 26.94 35.26 25.91 35.26H3.74V54.7C3.74 59.3 7.48 63.04 12.08 63.04H33.39C34.43 63.04 35.26 63.88 35.26 64.91C35.26 65.94 34.42 66.78 33.39 66.78Z" fill="#83C000"/>
<path d="M26.3398 19.5H8.9198C7.8898 19.5 7.0498 18.66 7.0498 17.63C7.0498 16.6 7.8898 15.76 8.9198 15.76H26.3398C27.3698 15.76 28.2098 16.6 28.2098 17.63C28.1998 18.66 27.3698 19.5 26.3398 19.5Z" fill="#83C000"/>
<path d="M17.6298 28.21C16.5998 28.21 15.7598 27.37 15.7598 26.34V8.92C15.7598 7.89 16.5998 7.05 17.6298 7.05C18.6598 7.05 19.4998 7.89 19.4998 8.92V26.33C19.4998 27.37 18.6598 28.21 17.6298 28.21Z" fill="#83C000"/>
<path d="M23.8802 57.27C23.4002 57.27 22.9202 57.09 22.5602 56.72L10.0602 44.22C9.3302 43.49 9.3302 42.31 10.0602 41.58C10.7902 40.85 11.9702 40.85 12.7102 41.58L25.2102 54.08C25.9402 54.81 25.9402 55.99 25.2102 56.73C24.8302 57.09 24.3602 57.27 23.8802 57.27Z" fill="#83C000"/>
<path d="M11.3802 57.27C10.9002 57.27 10.4202 57.09 10.0602 56.72C9.3302 55.99 9.3302 54.8 10.0602 54.07L22.5602 41.57C23.2902 40.84 24.4702 40.84 25.2102 41.57C25.9402 42.3 25.9402 43.48 25.2102 44.21L12.7102 56.71C12.3402 57.09 11.8602 57.27 11.3802 57.27Z" fill="#83C000"/>
<path d="M57.8598 19.5H40.4398C39.4098 19.5 38.5698 18.66 38.5698 17.63C38.5698 16.6 39.4098 15.76 40.4398 15.76H57.8598C58.8898 15.76 59.7298 16.6 59.7298 17.63C59.7298 18.66 58.8898 19.5 57.8598 19.5Z" fill="#83C000"/>
<path d="M54.7 66.78H33.39C32.36 66.78 31.52 65.94 31.52 64.91V33.39C31.52 32.36 32.36 31.52 33.39 31.52C34.43 31.52 35.26 32.36 35.26 33.39V63.04H54.7C59.3 63.04 63.04 59.3 63.04 54.7V40.87C63.04 39.84 63.88 39 64.91 39C65.94 39 66.78 39.84 66.78 40.87V54.7C66.78 61.36 61.36 66.78 54.7 66.78Z" fill="#83C000"/>
<path d="M49.1502 39.69C47.8002 39.69 46.7202 40.78 46.7202 42.12C46.7202 43.46 47.8102 44.55 49.1502 44.55C50.4902 44.55 51.5802 43.46 51.5802 42.12C51.5802 40.78 50.4902 39.69 49.1502 39.69Z" fill="#83C000"/>
<path d="M49.1502 53.74C47.8002 53.74 46.7202 54.83 46.7202 56.17C46.7202 57.51 47.8102 58.6 49.1502 58.6C50.4902 58.6 51.5802 57.51 51.5802 56.17C51.5802 54.83 50.4902 53.74 49.1502 53.74Z" fill="#83C000"/>
<path d="M57.8598 51.02H40.4398C39.4098 51.02 38.5698 50.18 38.5698 49.15C38.5698 48.12 39.4098 47.28 40.4398 47.28H57.8598C58.8898 47.28 59.7298 48.12 59.7298 49.15C59.7298 50.18 58.8898 51.02 57.8598 51.02Z" fill="#83C000"/>
</svg>
