<svg width="80" height="80" viewBox="0 0 80 80" fill="none" xmlns="http://www.w3.org/2000/svg">
<path d="M1.66016 19.83L33.1302 1.66003L64.6202 19.83" stroke="#83C000" stroke-width="3.3127" stroke-miterlimit="10" stroke-linecap="round" stroke-linejoin="round"/>
<path d="M33.1302 38.11V74.05L1.66016 55.93V19.88" stroke="#83C000" stroke-width="3.3127" stroke-miterlimit="10" stroke-linejoin="round"/>
<path d="M52.76 12.9401L21.53 30.9701V48.0201L17.41 42.4601L13.25 43.2401V26.0001L44.73 7.83008" stroke="#83C000" stroke-width="3.3127" stroke-miterlimit="10" stroke-linejoin="round"/>
<path d="M22.2603 31.73L33.1303 38.01" stroke="#83C000" stroke-width="3.3127" stroke-miterlimit="10" stroke-linejoin="round"/>
<path d="M1.66016 19.8301L13.4102 26.6201" stroke="#83C000" stroke-width="3.3127" stroke-miterlimit="10" stroke-linejoin="round"/>
<path d="M54.5101 69.42C62.7447 69.42 69.4201 62.7445 69.4201 54.51C69.4201 46.2754 62.7447 39.6 54.5101 39.6C46.2755 39.6 39.6001 46.2754 39.6001 54.51C39.6001 62.7445 46.2755 69.42 54.5101 69.42Z" stroke="#83C000" stroke-width="3.3127" stroke-miterlimit="10" stroke-linecap="round" stroke-linejoin="round"/>
<path d="M65.0503 65.0601L78.3103 78.3101" stroke="#83C000" stroke-width="3.3127" stroke-miterlimit="10" stroke-linejoin="round"/>
<path d="M64.6204 38.1101V19.8301L33.1304 38.0101V74.0501L41.9104 69.0001" stroke="#83C000" stroke-width="3.3127" stroke-miterlimit="10" stroke-linejoin="round"/>
</svg>
