<svg width="45" height="23" viewBox="0 0 45 23" fill="none" xmlns="http://www.w3.org/2000/svg">
<path d="M40.253 19.0656H42.7185C43.239 19.0656 43.6655 18.6436 43.6655 18.1289V10.8545C43.6655 10.7026 43.6314 10.5591 43.5632 10.4241L40.4236 4.38182C40.2615 4.06958 39.9373 3.87549 39.579 3.87549H29.1621V19.0656" stroke="#253D4E" stroke-miterlimit="10" stroke-linecap="round" stroke-linejoin="round"/>
<path d="M41.0545 11.4708L38.5121 6.40747H32.5742V11.4708H41.0545Z" stroke="#253D4E" stroke-miterlimit="10" stroke-linecap="round" stroke-linejoin="round"/>
<path d="M19.7773 19.0659H29.6141H32.5745" stroke="#253D4E" stroke-miterlimit="10" stroke-linecap="round" stroke-linejoin="round"/>
<path d="M12.9536 19.0657H9.54102V1.85867C9.54102 1.1076 10.1553 0.5 10.9146 0.5H27.7897C28.549 0.5 29.1633 1.1076 29.1633 1.85867V5.28488" stroke="#253D4E" stroke-miterlimit="10" stroke-linecap="round" stroke-linejoin="round"/>
<path d="M20.6309 15.6902H29.1623" stroke="#253D4E" stroke-miterlimit="10" stroke-linecap="round" stroke-linejoin="round"/>
<path d="M2.9375 6.12036H15.6749" stroke="#253D4E" stroke-miterlimit="10" stroke-linecap="round" stroke-linejoin="round"/>
<path d="M1 8.79541H13.7374" stroke="#253D4E" stroke-miterlimit="10" stroke-linecap="round" stroke-linejoin="round"/>
<path d="M3.4668 11.302H16.2042" stroke="#253D4E" stroke-miterlimit="10" stroke-linecap="round" stroke-linejoin="round"/>
<path d="M9.54102 15.6902H11.2473" stroke="#253D4E" stroke-miterlimit="10" stroke-linecap="round" stroke-linejoin="round"/>
<path d="M16.3657 22.4413C18.2504 22.4413 19.7783 20.93 19.7783 19.0658C19.7783 17.2015 18.2504 15.6902 16.3657 15.6902C14.481 15.6902 12.9531 17.2015 12.9531 19.0658C12.9531 20.93 14.481 22.4413 16.3657 22.4413Z" stroke="#253D4E" stroke-miterlimit="10" stroke-linecap="round" stroke-linejoin="round"/>
<path d="M36.8403 22.4413C38.725 22.4413 40.2529 20.93 40.2529 19.0658C40.2529 17.2015 38.725 15.6902 36.8403 15.6902C34.9556 15.6902 33.4277 17.2015 33.4277 19.0658C33.4277 20.93 34.9556 22.4413 36.8403 22.4413Z" stroke="#253D4E" stroke-miterlimit="10" stroke-linecap="round" stroke-linejoin="round"/>
</svg>
