<svg width="39" height="37" viewBox="0 0 39 37" fill="none" xmlns="http://www.w3.org/2000/svg">
<path d="M10.9648 25.9285V31.4642H27.572" stroke="#012E71" stroke-width="2" stroke-linecap="round"/>
<circle cx="13.1769" cy="33.6786" r="2.32143" stroke="#012E71" stroke-width="2"/>
<circle cx="26.466" cy="33.6786" r="2.32143" stroke="#012E71" stroke-width="2"/>
<path d="M1 6H2.65928C3.51618 6 4.27343 6.55746 4.52799 7.37568L9.87201 24.5529C10.1266 25.3711 10.8838 25.9286 11.7407 25.9286H24.4284C25.2517 25.9286 25.9871 25.4132 26.268 24.6392L30.571 12.7841C31.2658 10.8698 29.848 8.84694 27.8115 8.84694H13.4" stroke="#012E71" stroke-width="2" stroke-linecap="round"/>
<circle cx="31" cy="8" r="8" fill="#83C000"/>
<path d="M28.924 8.755C28.7993 8.755 28.6967 8.71467 28.616 8.634C28.5353 8.55333 28.495 8.45433 28.495 8.337C28.495 8.21967 28.5353 8.12433 28.616 8.051C28.6967 7.97033 28.7993 7.93 28.924 7.93H33.434C33.5587 7.93 33.6613 7.97033 33.742 8.051C33.8227 8.13167 33.863 8.23067 33.863 8.348C33.863 8.46533 33.8227 8.56433 33.742 8.645C33.6613 8.71833 33.5587 8.755 33.434 8.755H28.924ZM31.168 11.054C31.036 11.054 30.9223 11.01 30.827 10.922C30.739 10.834 30.695 10.724 30.695 10.592V6.049C30.695 5.90967 30.739 5.796 30.827 5.708C30.9223 5.62 31.0397 5.576 31.179 5.576C31.3183 5.576 31.4283 5.62 31.509 5.708C31.597 5.796 31.641 5.90967 31.641 6.049V10.581C31.641 10.7203 31.597 10.834 31.509 10.922C31.421 11.01 31.3073 11.054 31.168 11.054Z" fill="white"/>
</svg>
