<svg width="20" height="20" viewBox="0 0 20 20" fill="none" xmlns="http://www.w3.org/2000/svg">
<path d="M14.95 10.45V11.2C15.3642 11.2 15.7 10.8642 15.7 10.45H14.95ZM15.7 8.65C15.7 8.23579 15.3642 7.9 14.95 7.9C14.5358 7.9 14.2 8.23579 14.2 8.65H15.7ZM13.45 8.65C13.45 8.23579 13.1142 7.9 12.7 7.9C12.2858 7.9 11.95 8.23579 11.95 8.65H13.45ZM5.5 1.75H14.5V0.25H5.5V1.75ZM18.25 5.5V14.5H19.75V5.5H18.25ZM14.5 18.25H5.5V19.75H14.5V18.25ZM1.75 14.5V5.5H0.25V14.5H1.75ZM5.5 18.25C3.42893 18.25 1.75 16.5711 1.75 14.5H0.25C0.25 17.3995 2.60051 19.75 5.5 19.75V18.25ZM18.25 14.5C18.25 16.5711 16.5711 18.25 14.5 18.25V19.75C17.3995 19.75 19.75 17.3995 19.75 14.5H18.25ZM14.5 1.75C16.5711 1.75 18.25 3.42893 18.25 5.5H19.75C19.75 2.60051 17.3995 0.25 14.5 0.25V1.75ZM5.5 0.25C2.60051 0.25 0.25 2.60051 0.25 5.5H1.75C1.75 3.42893 3.42893 1.75 5.5 1.75V0.25ZM8.65 11.2L14.95 11.2V9.7L8.65 9.7L8.65 11.2ZM15.7 10.45V8.65H14.2V10.45H15.7ZM13.45 10.45V8.65H11.95V10.45H13.45ZM4.3 10.45C4.3 11.8583 5.44167 13 6.85 13V11.5C6.2701 11.5 5.8 11.0299 5.8 10.45H4.3ZM6.85 13C8.25833 13 9.4 11.8583 9.4 10.45H7.9C7.9 11.0299 7.4299 11.5 6.85 11.5V13ZM9.4 10.45C9.4 9.04167 8.25833 7.9 6.85 7.9V9.4C7.4299 9.4 7.9 9.8701 7.9 10.45H9.4ZM6.85 7.9C5.44167 7.9 4.3 9.04167 4.3 10.45H5.8C5.8 9.8701 6.2701 9.4 6.85 9.4V7.9Z" fill="#253D4E"/>
</svg>
