<svg width="24" height="24" viewBox="0 0 24 24" fill="none" xmlns="http://www.w3.org/2000/svg">
<path d="M7.90717 3.36067C7.00763 2.79874 5.82782 2.89183 5.06847 3.65118L3.7817 4.93795C1.82739 6.89227 3.66372 11.8972 7.88327 16.1167C12.1028 20.3363 17.1077 22.1726 19.0621 20.2183L20.3488 18.9315C21.2371 18.0432 21.2137 16.5795 20.2964 15.6622L18.3033 13.6691C17.386 12.7518 15.9222 12.7283 15.0339 13.6166L14.7575 13.893C14.2779 14.3726 13.5042 14.4196 12.9641 13.9739C12.4432 13.544 11.9244 13.0806 11.4219 12.5781C10.9194 12.0756 10.456 11.5568 10.0261 11.0359C9.58045 10.4958 9.62737 9.72209 10.107 9.24247L10.3834 8.96609C11.0837 8.26578 11.2173 7.20785 10.7931 6.34197" stroke="#253D4E" stroke-width="1.5" stroke-linecap="round"/>
</svg>
