<svg width="24" height="24" viewBox="0 0 24 24" fill="none" xmlns="http://www.w3.org/2000/svg">
<path d="M7.69945 3.74C8.94141 2.95498 10.417 2.5 12 2.5C16.4183 2.5 20 6.04441 20 10.4167C20 15.8445 13.6 21.5 12 21.5C10.4 21.5 4 15.8445 4 10.4167C4 9.02506 4.36284 7.71732 5 6.58103" stroke="#253D4E" stroke-width="1.5" stroke-linecap="round"/>
<path d="M14.8842 10.8282C14.9596 10.5651 15 10.2873 15 10C15 8.34315 13.6569 7 12 7C10.3431 7 9 8.34315 9 10C9 11.6569 10.3431 13 12 13C12.2301 13 12.4541 12.9741 12.6693 12.9251" stroke="#253D4E" stroke-width="1.5" stroke-linecap="round"/>
</svg>
